<svg width="318" height="296" viewBox="0 0 318 296" fill="none" xmlns="http://www.w3.org/2000/svg">
<path d="M0 32.635C0 16.0664 13.4315 2.63501 30 2.63501H288C304.569 2.63501 318 16.0665 318 32.635V241.543H0V32.635Z" fill="#F4F4F4"/>
<path d="M0 241.543H318V266C318 282.569 304.569 296 288 296H30C13.4315 296 0 282.569 0 266V241.543Z" fill="#1A1B27"/>
<path d="M294.378 256.804H272.058V279.861H294.378V256.804Z" fill="#1976D2"/>
<path d="M285.382 267.051H277.159V269.142H280.108V278.58H282.445V269.142H285.382V267.051Z" fill="white"/>
<path d="M292.638 269.667C292.638 269.667 291.53 268.904 290.278 268.904C289.025 268.904 288.575 269.518 288.575 270.176C288.575 271.871 293.151 271.702 293.151 275.115C293.151 280.372 286.174 278.04 286.174 278.04V275.518C286.174 275.518 287.508 276.557 289.108 276.557C290.708 276.557 290.647 275.476 290.647 275.327C290.647 273.759 286.112 273.759 286.112 270.282C286.112 265.555 292.72 267.42 292.72 267.42L292.638 269.667Z" fill="white"/>
<g clip-path="url(#clip0)">
<path d="M179.756 275.493C171.273 275.493 164.877 272.546 164.877 268.638C164.877 264.73 171.273 261.783 179.756 261.783C188.24 261.783 194.636 264.73 194.636 268.638C194.636 272.546 188.24 275.493 179.756 275.493ZM179.756 263.704C172.084 263.704 166.737 266.304 166.737 268.638C166.737 270.972 172.084 273.572 179.756 273.572C187.429 273.572 192.776 270.972 192.776 268.638C192.776 266.304 187.429 263.704 179.756 263.704Z" fill="#5467FC"/>
<path d="M174.227 282.088C173.576 282.088 172.984 281.932 172.465 281.623C171.619 281.119 171.009 280.228 170.702 279.042C169.874 275.847 171.212 270.446 174.111 265.283C177.509 259.244 181.999 255.188 185.288 255.188C185.939 255.188 186.53 255.344 187.049 255.653C187.894 256.155 188.504 257.046 188.811 258.23C189.638 261.427 188.301 266.828 185.399 271.991C182.007 278.03 177.517 282.088 174.227 282.088ZM185.288 257.11C183.141 257.11 179.059 260.313 175.72 266.25C173.098 270.919 171.803 275.86 172.499 278.546C172.679 279.236 172.979 279.711 173.391 279.957C175.197 281.029 179.95 277.862 183.791 271.024C186.415 266.353 187.709 261.412 187.014 258.726C186.833 258.038 186.534 257.563 186.123 257.319C185.885 257.179 185.611 257.11 185.288 257.11Z" fill="#5467FC"/>
<path d="M185.288 282.088C181.998 282.088 177.508 278.03 174.113 271.993C171.212 266.832 169.874 261.431 170.702 258.234C171.009 257.048 171.619 256.155 172.465 255.653C172.984 255.344 173.578 255.188 174.227 255.188C177.515 255.188 182.005 259.246 185.399 265.287C188.301 270.45 189.638 275.849 188.809 279.046C188.502 280.231 187.894 281.123 187.049 281.623C186.53 281.932 185.937 282.088 185.288 282.088ZM174.227 257.11C173.903 257.11 173.63 257.179 173.392 257.319C172.977 257.565 172.677 258.04 172.499 258.731C171.803 261.417 173.098 266.359 175.722 271.028C179.057 276.963 183.14 280.166 185.288 280.166C185.613 280.166 185.885 280.097 186.123 279.957C186.536 279.713 186.835 279.238 187.014 278.548C187.711 275.862 186.417 270.921 183.792 266.252C180.456 260.313 176.373 257.11 174.227 257.11Z" fill="#5467FC"/>
<path d="M181.616 268.638C181.616 269.7 180.785 270.559 179.756 270.559C178.728 270.559 177.896 269.7 177.896 268.638C177.896 267.575 178.728 266.717 179.756 266.717C180.785 266.717 181.616 267.575 181.616 268.638Z" fill="white"/>
<path d="M179.756 271.52C178.218 271.52 176.966 270.227 176.966 268.638C176.966 267.049 178.218 265.756 179.756 265.756C181.294 265.756 182.546 267.049 182.546 268.638C182.546 270.227 181.294 271.52 179.756 271.52ZM179.756 267.677C179.245 267.677 178.826 268.108 178.826 268.638C178.826 269.168 179.245 269.599 179.756 269.599C180.268 269.599 180.686 269.168 180.686 268.638C180.686 268.108 180.268 267.677 179.756 267.677Z" fill="#5467FC"/>
</g>
<path d="M143.631 264.155L140.374 258.391H130.603L143.631 281.447L156.658 258.391H146.887L143.631 264.155Z" fill="#81C784"/>
<path d="M146.887 258.391L143.631 264.155L140.374 258.391H135.669L143.631 272.481L151.592 258.391H146.887Z" fill="#455A64"/>
<path d="M96.3614 280.166V257.11H118.681V280.166H96.3614Z" fill="#FFD600"/>
<path d="M110.955 274.368C111.384 275.088 111.85 275.778 112.838 275.778C113.667 275.778 114.102 275.352 114.102 274.763C114.102 274.057 113.652 273.807 112.74 273.397L112.239 273.176C110.795 272.543 109.835 271.751 109.835 270.076C109.835 268.532 110.979 267.358 112.766 267.358C114.039 267.358 114.954 267.813 115.613 269.006L114.055 270.035C113.712 269.402 113.341 269.153 112.766 269.153C112.18 269.153 111.808 269.535 111.808 270.035C111.808 270.652 112.18 270.902 113.039 271.284L113.539 271.505C115.241 272.253 116.201 273.018 116.201 274.737C116.201 276.589 114.785 277.604 112.884 277.604C111.025 277.604 109.969 276.64 109.381 275.447L110.955 274.368ZM103.771 274.421C104.085 275.001 104.562 275.447 105.248 275.447C105.904 275.447 106.281 275.18 106.281 274.139V267.357H108.348V274.467C108.348 276.623 107.137 277.604 105.369 277.604C103.771 277.604 102.618 276.486 102.148 275.447L103.771 274.421Z" fill="#000001"/>
<path d="M81.9434 256.469H60.8638L62.7238 278.245L71.4036 280.807L80.0834 278.245L81.9434 256.469Z" fill="#0277BD"/>
<path d="M71.4036 258.391V278.821L78.3475 276.772L79.8974 258.391H71.4036Z" fill="#039BE5"/>
<path d="M77.0455 261.593H71.4036V264.155H74.4416L74.2556 266.717H71.4036V269.278H74.1316L73.9456 272.16L71.4036 273.057V275.747L76.3015 274.082L76.7355 266.717L77.0455 261.593Z" fill="white"/>
<path d="M71.4036 261.593V264.155H65.8857L65.6997 261.593H71.4036ZM68.5516 266.717L68.6756 269.278H71.4036V266.717H68.5516ZM68.7996 270.559H66.3197L66.5057 274.082L71.4036 275.747V273.057L68.8616 272.16L68.7996 270.559Z" fill="#EEEEEE"/>
<path d="M45.8259 256.469H24.7463L26.6063 278.245L35.2861 280.807L43.9659 278.245L45.8259 256.469Z" fill="#E65100"/>
<path d="M35.2861 258.391V278.821L42.23 276.772L43.7799 258.391H35.2861Z" fill="#FF6D00"/>
<path d="M35.2861 269.278V266.717H40.618L40.184 274.082L35.2861 275.747V273.057L37.8281 272.16L38.0141 269.278H35.2861ZM40.804 264.155L40.99 261.593H35.2861V264.155H40.804Z" fill="white"/>
<path d="M35.2861 273.057V275.747L30.3882 274.082L30.1402 270.559H32.6202L32.7442 272.16L35.2861 273.057ZM32.2482 264.155H35.2861V261.593H29.6442L30.0782 269.278H35.2861V266.717H32.4342L32.2482 264.155Z" fill="#EEEEEE"/>
<path d="M227.034 276.964C227.034 278.733 225.646 280.166 223.934 280.166H207.814C206.102 280.166 204.714 278.733 204.714 276.964V260.312C204.714 258.543 206.102 257.11 207.814 257.11H223.934C225.646 257.11 227.034 258.543 227.034 260.312V276.964Z" fill="#673AB7"/>
<path d="M221.472 269.663C221.069 269.086 220.487 268.689 219.736 268.478C219.736 268.478 220.369 268.241 220.939 267.357C221.28 266.793 221.454 266.115 221.454 265.32C221.454 263.943 220.97 262.887 220.003 262.163C219.036 261.439 217.945 260.953 216.091 260.953H210.294V276.323H216.76C218.515 276.311 219.836 275.92 220.735 275.171C221.627 274.408 222.074 273.281 222.074 271.776C222.074 270.944 221.875 270.239 221.472 269.663ZM214.014 263.514C214.014 263.514 216.599 263.514 216.649 263.514C217.591 263.514 218.354 264.302 218.354 265.276C218.354 266.249 217.591 267.037 216.649 267.037C216.599 267.037 214.014 267.037 214.014 267.037V263.514ZM217.114 273.762H214.014V269.919H217.114C218.143 269.919 218.974 270.777 218.974 271.84C218.974 272.903 218.143 273.762 217.114 273.762Z" fill="white"/>
<path d="M243.602 265.258C244.452 261.159 246.578 259.11 249.979 259.11C255.08 259.11 255.718 263.721 258.269 264.49C259.969 265.002 261.457 264.233 262.733 262.184C261.882 266.283 259.757 268.332 256.356 268.332C251.254 268.332 250.616 263.721 248.066 262.953C246.365 262.44 244.877 263.209 243.602 265.258ZM237.225 274.481C238.075 270.382 240.201 268.332 243.602 268.332C248.703 268.332 249.341 272.944 251.892 273.712C253.592 274.225 255.08 273.456 256.356 271.407C255.505 275.505 253.38 277.555 249.979 277.555C244.877 277.555 244.239 272.944 241.689 272.175C239.988 271.663 238.5 272.431 237.225 274.481Z" fill="#44A8B3"/>
<path d="M51.2532 226.37L42.6943 105.519C42.4775 102.441 43.2187 99.374 44.7848 96.8701L87.3842 28.7876C88.5228 26.9679 90.0514 25.5208 91.8199 24.5877C93.5884 23.6544 95.5364 23.2672 97.4735 23.464L243.341 38.2749C245.65 38.5096 247.84 39.5633 249.609 41.2914C251.378 43.0195 252.641 45.3375 253.224 47.9271L273.28 136.979C273.775 139.169 273.763 141.471 273.244 143.654L253.645 226.637L51.2532 226.37Z" fill="#F4F4F4"/>
<path d="M113.082 175.229C113.082 175.229 112.721 177.68 111.982 179.54C111.386 181.15 111.039 182.868 110.958 184.616C110.958 185.461 109.346 185.968 109.346 185.968L108.833 192.395H135.203C135.203 192.395 133.812 188.252 132.932 188.252C132.052 188.252 130.222 187.914 130.222 187.914L127.365 180.725L125.656 177.978C125.034 176.977 124.206 176.17 123.246 175.631C122.287 175.091 121.226 174.835 120.16 174.886L113.082 175.229Z" fill="#61656D"/>
<path opacity="0.2" d="M113.082 175.229C113.082 175.229 115.059 175.646 115.646 176.328C116.233 177.01 117.256 181.063 117.256 181.063L117.99 183.093L124.583 183.685L127.101 180.302L125.098 177.085C124.647 176.361 124.048 175.778 123.355 175.387C122.661 174.997 121.894 174.811 121.123 174.847L113.082 175.229Z" fill="white"/>
<path opacity="0.3" d="M112.77 192.401L117.769 190.646L127.548 192.401H112.77Z" fill="black"/>
<path opacity="0.3" d="M117.99 183.099L117.769 190.646L127.548 192.401L124.583 183.692L117.99 183.099Z" fill="black"/>
<path d="M124.82 188.066C124.82 188.096 124.827 188.126 124.842 188.151C124.856 188.176 124.877 188.195 124.901 188.207C124.925 188.218 124.951 188.221 124.977 188.215C125.002 188.209 125.025 188.195 125.044 188.174C125.062 188.152 125.075 188.125 125.08 188.096C125.085 188.066 125.082 188.036 125.072 188.008C125.062 187.98 125.046 187.956 125.024 187.939C125.002 187.923 124.977 187.914 124.951 187.914C124.934 187.914 124.917 187.918 124.901 187.925C124.885 187.933 124.87 187.944 124.858 187.958C124.846 187.972 124.836 187.989 124.83 188.008C124.823 188.026 124.82 188.046 124.82 188.066Z" fill="#514A4A"/>
<path opacity="0.3" d="M113.942 179.146C113.942 179.146 112.135 182.275 112.135 184.098C112.135 185.922 110.968 187.227 110.379 187.914C109.79 188.6 110.379 192.401 110.379 192.401H112.777C112.777 192.401 111.203 189.176 112.032 188.218C112.862 187.261 113.089 185.229 113.089 183.692C113.089 182.154 113.942 179.146 113.942 179.146Z" fill="black"/>
<path opacity="0.2" d="M132.896 188.75C132.896 188.75 128.392 191.838 128.392 191.045C128.392 190.252 129.857 188.444 129.857 188.444C130.031 188.575 130.234 188.647 130.442 188.652C131.351 188.788 132.896 188.327 132.896 188.75Z" fill="white"/>
<path d="M99.5672 185.471C99.5672 185.471 105.204 188.106 105.674 194.232H106.748C106.748 194.232 106.211 187.098 99.5672 185.471Z" fill="#4D61FC"/>
<path d="M107.488 194.226C107.488 194.226 107.08 188.802 102.023 187.563C102.023 187.563 106.314 189.568 106.671 194.226H107.488Z" fill="#4D61FC"/>
<path d="M113.608 185.433C113.608 185.433 107.97 188.068 107.501 194.195H106.427C106.427 194.195 106.964 187.061 113.608 185.433Z" fill="#4D61FC"/>
<path d="M106.919 194.61C106.919 194.61 104.794 189.75 108.531 185.623C108.531 185.623 105.795 189.935 107.615 194.114L106.919 194.61Z" fill="#4D61FC"/>
<g opacity="0.2">
<path opacity="0.2" d="M107.488 194.226C107.488 194.226 107.08 188.802 102.023 187.563C102.023 187.563 106.314 189.568 106.671 194.226H107.488Z" fill="black"/>
</g>
<g opacity="0.2">
<path opacity="0.2" d="M106.919 194.61C106.919 194.61 104.794 189.75 108.531 185.623C108.531 185.623 105.795 189.935 107.615 194.114L106.919 194.61Z" fill="black"/>
</g>
<path d="M107.534 182.596C107.534 182.596 104.542 188.711 107.476 193.84L106.634 194.61C106.634 194.61 103.21 188.646 107.534 182.596Z" fill="#4D61FC"/>
<g opacity="0.2">
<path opacity="0.2" d="M107.534 182.596C107.534 182.596 104.542 188.711 107.476 193.84L106.634 194.61C106.634 194.61 103.21 188.646 107.534 182.596Z" fill="white"/>
</g>
<path d="M108.755 140.17C108.755 140.17 102.261 147.328 98.4562 146.618L96.6982 149.178C96.6982 149.178 103.954 149.893 108.755 140.17Z" fill="#3F4249"/>
<path opacity="0.1" d="M108.755 140.17C108.755 140.17 104.07 147.83 97.9142 148.097L98.9983 146.493C98.9983 146.493 101.654 147.63 108.755 140.17Z" fill="black"/>
<path d="M80.7875 138.443C80.7875 138.443 80.175 148.784 76.9517 151.226L77.1468 154.485C77.1468 154.485 82.9232 149.361 80.7875 138.443Z" fill="#3F4249"/>
<path opacity="0.3" d="M80.7875 138.443C80.7875 138.443 81.8047 147.749 77.4214 152.743L77.2805 150.715C77.2805 150.715 79.904 149.48 80.7875 138.443Z" fill="black"/>
<path d="M101.844 135.272C101.844 135.272 95.5743 152.818 88.75 154.896L87.4473 160.68C87.4473 160.68 100.057 155.663 101.844 135.272Z" fill="#3F4249"/>
<path opacity="0.3" d="M101.844 135.272C101.844 135.272 98.9225 152.107 88.799 157.843L89.5759 154.224C89.5759 154.224 94.7542 153.844 101.844 135.272Z" fill="black"/>
<path d="M72.3259 140.197C72.3259 140.197 78.5937 157.743 85.4181 159.821L86.7226 165.606C86.7226 165.606 74.1056 160.589 72.3259 140.197Z" fill="#3F4249"/>
<path opacity="0.3" d="M72.3259 140.197C72.3259 140.197 75.2457 157.032 85.3693 162.766L84.5923 159.149C84.5923 159.149 79.4104 158.77 72.3259 140.197Z" fill="black"/>
<path d="M86.139 127.746L84.4026 205.424L91.2378 205.18L88.3 127.664L86.139 127.746Z" fill="#3F4249"/>
<path opacity="0.3" d="M87.1002 127.725L87.6405 205.243L91.2378 205.18L88.2999 127.664L87.1002 127.725Z" fill="black"/>
<path d="M106.025 101.731C105.087 101.733 104.151 101.846 103.233 102.066C100.745 96.0815 94.7412 91.8447 87.6946 91.8447C81.9562 91.8447 76.879 94.6755 73.8652 98.9811C72.9065 98.7702 71.9323 98.6661 70.9563 98.6703C63.6278 98.6703 57.6906 104.455 57.6906 111.587C57.6906 117.622 61.924 122.67 67.6534 124.103V124.521H106.025C112.486 124.521 117.72 119.42 117.72 113.127C117.72 106.833 112.486 101.731 106.025 101.731Z" fill="#4D61FC"/>
<g opacity="0.2">
<path opacity="0.2" d="M106.025 101.731C105.087 101.733 104.151 101.846 103.233 102.066C100.745 96.0815 94.7412 91.8447 87.6946 91.8447C81.9562 91.8447 76.879 94.6755 73.8652 98.9811C72.9065 98.7702 71.9323 98.6661 70.9563 98.6703C63.6278 98.6703 57.6906 104.455 57.6906 111.587C57.6906 117.622 61.924 122.67 67.6534 124.103V124.521H106.025C112.486 124.521 117.72 119.42 117.72 113.127C117.72 106.833 112.486 101.731 106.025 101.731Z" fill="white"/>
</g>
<path opacity="0.2" d="M107.776 101.872C105.91 112.259 93.578 120.282 78.6302 120.282C70.5736 120.282 63.2722 117.95 57.9638 114.174C58.9774 119.026 62.7663 122.881 67.6538 124.104V124.521H106.025C112.486 124.521 117.721 119.42 117.721 113.127C117.721 107.411 113.404 102.696 107.776 101.872Z" fill="black"/>
<path d="M116.374 124.106C115.695 124.107 115.017 124.188 114.352 124.35C112.545 120.009 108.187 116.942 103.083 116.942C98.9273 116.942 95.2396 118.995 93.0533 122.115C92.3557 121.958 91.6465 121.879 90.9357 121.88C85.6183 121.88 81.3126 126.081 81.3126 131.254C81.3126 135.635 84.3842 139.292 88.5399 140.331V140.633H116.365C121.063 140.633 124.857 136.935 124.857 132.368C124.857 127.802 121.063 124.106 116.374 124.106Z" fill="#4D61FC"/>
<g opacity="0.2">
<path opacity="0.2" d="M116.374 124.106C115.695 124.107 115.017 124.188 114.352 124.35C112.545 120.009 108.187 116.942 103.083 116.942C98.9273 116.942 95.2396 118.995 93.0533 122.115C92.3557 121.958 91.6465 121.879 90.9357 121.88C85.6183 121.88 81.3126 126.081 81.3126 131.254C81.3126 135.635 84.3842 139.292 88.5399 140.331V140.633H116.365C121.063 140.633 124.857 136.935 124.857 132.368C124.857 127.802 121.063 124.106 116.374 124.106Z" fill="white"/>
</g>
<path opacity="0.2" d="M117.691 124.406C116.336 131.939 107.392 137.757 96.5515 137.757C90.7082 137.757 85.4178 136.063 81.5639 133.324C82.2993 136.843 85.0456 139.64 88.5906 140.527V140.827H116.412C121.099 140.827 124.904 137.129 124.904 132.562C124.904 128.42 121.773 125.005 117.691 124.406Z" fill="black"/>
<path d="M85.3891 124.746C84.709 124.749 84.0311 124.831 83.3655 124.99C81.5587 120.651 77.2006 117.585 72.1 117.585C67.9443 117.585 64.2548 119.635 62.0667 122.758C61.3707 122.602 60.6633 122.522 59.9545 122.52C54.6407 122.52 50.3314 126.722 50.3314 131.897C50.3314 136.278 53.403 139.935 57.5587 140.973V140.953L85.3837 141.274C90.0706 141.274 93.8757 137.577 93.8757 133.013C93.8757 128.449 90.076 124.746 85.3891 124.746Z" fill="#4D61FC"/>
<g opacity="0.2">
<path opacity="0.2" d="M85.3891 124.746C84.709 124.749 84.0311 124.831 83.3655 124.99C81.5587 120.651 77.2006 117.585 72.1 117.585C67.9443 117.585 64.2548 119.635 62.0667 122.758C61.3707 122.602 60.6633 122.522 59.9545 122.52C54.6407 122.52 50.3314 126.722 50.3314 131.897C50.3314 136.278 53.403 139.935 57.5587 140.973V140.953L85.3837 141.274C90.0706 141.274 93.8757 137.577 93.8757 133.013C93.8757 128.449 90.076 124.746 85.3891 124.746Z" fill="white"/>
</g>
<path opacity="0.2" d="M86.6613 124.852C85.3062 132.385 76.3625 138.203 65.5215 138.203C59.6765 138.203 54.3843 136.511 50.534 133.77C51.2676 137.289 54.0157 140.087 57.5589 140.971V140.95L85.3839 141.272C90.0708 141.272 93.8759 137.575 93.8759 133.011C93.8741 128.868 90.7429 125.449 86.6613 124.852Z" fill="black"/>
<path d="M65.3893 138.539C65.3893 138.539 70.2966 147.219 74.1451 147.536L75.3521 150.488C75.3521 150.488 68.1429 149.274 65.3893 138.539Z" fill="#3F4249"/>
<path opacity="0.3" d="M65.3893 138.539C65.3893 138.539 68.4392 147.234 74.3746 149.121L73.6392 147.275C73.6392 147.275 70.8296 147.674 65.3893 138.539Z" fill="black"/>
<path d="M63.9693 196.379C63.7404 197.481 63.8121 198.637 64.1747 199.69C64.5375 200.743 65.1735 201.64 65.9955 202.259C66.8174 202.878 67.7849 203.189 68.7657 203.147C69.7464 203.106 70.6921 202.716 71.473 202.03C72.1717 202.716 73.0007 203.201 73.8925 203.447H73.905L76.0732 203.565L87.6621 204.191L93.7059 204.525L100.297 204.886C101.169 205.128 102.089 204.96 102.853 204.42C103.618 203.879 104.166 203.01 104.375 202.003C104.585 200.996 104.44 199.935 103.971 199.052C103.503 198.169 102.75 197.537 101.878 197.295C101.459 197.18 101.024 197.158 100.597 197.23C100.591 196.654 100.416 196.098 100.099 195.653C99.7822 195.208 99.3435 194.901 98.8553 194.783C98.3673 194.665 97.8587 194.743 97.414 195.003C96.9692 195.264 96.6147 195.692 96.4089 196.216C95.8681 194.538 94.7725 193.175 93.3626 192.428C93.5109 192.138 93.6206 191.825 93.6878 191.498C93.8718 190.614 93.744 189.682 93.3332 188.908C92.9221 188.133 92.2613 187.578 91.4962 187.365C91.0717 187.247 90.6298 187.24 90.2025 187.344C89.7271 185.845 88.8607 184.553 87.7226 183.646C86.5847 182.739 85.231 182.262 83.8484 182.28C82.4657 182.299 81.122 182.812 80.0023 183.748C78.8826 184.685 78.042 186 77.5965 187.511C77.1039 187.511 76.6259 187.702 76.2388 188.054C75.8518 188.405 75.5785 188.897 75.4625 189.449C75.4202 189.663 75.4008 189.882 75.4048 190.102C74.4902 190.076 73.583 190.297 72.7557 190.748C71.9283 191.199 71.2038 191.867 70.6402 192.699C70.3389 192.532 70.0234 192.402 69.6987 192.311C69.0913 192.144 68.461 192.116 67.8444 192.23C67.2275 192.344 66.6363 192.597 66.1042 192.975C65.5723 193.353 65.1099 193.848 64.7435 194.432C64.3773 195.016 64.1142 195.677 63.9693 196.379Z" fill="#B2B6BB"/>
<path d="M85.8406 206.102C83.7917 205.823 81.741 205.599 79.7155 205.424C78.841 205.345 77.9719 205.28 77.1101 205.216H77.0523C75.5466 205.113 74.0692 205.033 72.6201 204.976L71.8396 204.942C71.2235 204.921 70.611 204.901 70.0057 204.888C69.5305 204.871 69.0589 204.863 68.5909 204.855C66.6956 204.819 64.8888 204.815 63.1976 204.834C62.4568 204.842 61.7413 204.853 61.0511 204.867C60.1242 204.886 59.2443 204.911 58.4149 204.94C53.5365 205.109 50.4649 205.405 50.4649 205.405C50.1762 204.849 50.0443 204.204 50.0873 203.557C50.2409 201.498 52.2139 200.011 54.5158 200.219C54.4477 199.885 54.4258 199.54 54.4508 199.197C54.6152 196.992 56.7129 195.397 59.1485 195.636C61.1721 195.845 62.7856 197.249 63.1705 198.991C63.7772 198.803 64.4078 198.74 65.0333 198.805C66.0937 198.894 67.1041 199.361 67.9242 200.142C68.5358 200.213 69.1324 200.405 69.6877 200.71C70.4664 199.36 72.0944 198.521 73.9012 198.699C74.2784 198.736 74.6514 198.818 75.0142 198.943C75.5213 198.826 76.0403 198.793 76.5554 198.845C78.4002 199.026 79.9034 200.213 80.4455 201.742C80.8804 201.662 81.3221 201.644 81.7608 201.69C84.1711 201.913 86.0051 203.895 85.8406 206.102Z" fill="#B2B6BB"/>
<path d="M88.4206 204.172C88.3917 205.658 99.7024 206.402 99.7295 204.988C99.7412 204.372 99.5598 203.772 99.2185 203.298C98.8772 202.824 98.3989 202.509 97.8721 202.41C97.9461 202.195 97.9859 201.967 97.9895 201.736C97.9949 201.479 97.9562 201.223 97.8757 200.983C97.7953 200.743 97.6747 200.524 97.5208 200.338C97.3669 200.152 97.1828 200.003 96.9789 199.899C96.775 199.795 96.5554 199.739 96.3326 199.733C96.2815 199.73 96.2304 199.73 96.1791 199.733C95.9189 198.45 94.824 197.47 93.4923 197.439C91.9439 197.399 90.6647 198.653 90.6339 200.24C90.6256 200.701 90.7243 201.155 90.9194 201.557C89.5498 201.627 88.4477 202.764 88.4206 204.172Z" fill="#B2B6BB"/>
<path opacity="0.1" d="M85.9745 206.357C83.9292 206.046 81.8801 205.795 79.8564 205.589C78.9837 205.497 78.1147 205.42 77.2528 205.347H77.1952C75.6919 205.222 74.2157 205.12 72.7667 205.042L71.9859 204.999C71.3698 204.967 70.7593 204.938 70.154 204.917C69.677 204.894 69.2052 204.878 68.7391 204.863C66.8437 204.8 65.0369 204.769 63.3457 204.763C62.6049 204.763 61.8896 204.763 61.1994 204.763C60.2725 204.763 59.3926 204.78 58.5614 204.796C53.683 204.894 50.5988 205.145 50.5988 205.145C50.3142 204.586 50.1879 203.938 50.2374 203.292C50.4181 201.235 52.4056 199.777 54.7021 200.009C54.6369 199.674 54.6184 199.329 54.6479 198.987C54.8286 196.784 56.9498 195.217 59.3763 195.492C61.3963 195.722 62.99 197.161 63.3622 198.905C63.9707 198.726 64.602 198.672 65.2266 198.747C66.2849 198.851 67.2889 199.333 68.0995 200.126C68.7102 200.205 69.3042 200.405 69.8557 200.718C70.6489 199.381 72.2859 198.565 74.0909 198.77C74.4681 198.812 74.8405 198.899 75.2022 199.03C75.7107 198.92 76.2303 198.895 76.7451 198.955C78.5862 199.164 80.0787 200.372 80.6026 201.907C81.0384 201.834 81.48 201.823 81.918 201.874C84.35 202.139 86.1624 204.154 85.9745 206.357Z" fill="black"/>
<g opacity="0.1">
<path opacity="0.1" d="M88.6013 204.172C88.5724 205.658 99.8831 206.402 99.9102 204.988C99.9219 204.372 99.7405 203.772 99.3992 203.298C99.0579 202.824 98.5797 202.509 98.0528 202.41C98.1269 202.195 98.1666 201.967 98.1702 201.736C98.1756 201.479 98.137 201.223 98.0564 200.983C97.976 200.743 97.8555 200.524 97.7015 200.338C97.5476 200.152 97.3635 200.003 97.1597 199.899C96.9557 199.795 96.7362 199.739 96.5134 199.733C96.4622 199.73 96.4111 199.73 96.3598 199.733C96.0996 198.45 95.0047 197.47 93.6731 197.439C92.1246 197.399 90.8454 198.653 90.8147 200.24C90.8064 200.701 90.905 201.155 91.1001 201.557C89.7306 201.627 88.6284 202.764 88.6013 204.172Z" fill="black"/>
</g>
<path d="M217.549 203.054C217.319 204.156 217.392 205.312 217.755 206.365C218.118 207.418 218.752 208.316 219.574 208.935C220.396 209.554 221.365 209.863 222.346 209.824C223.325 209.782 224.272 209.392 225.053 208.705C225.752 209.392 226.579 209.876 227.472 210.122H227.485L229.653 210.241L241.242 210.867L247.285 211.2L253.877 211.561C254.749 211.803 255.669 211.636 256.433 211.094C257.198 210.554 257.745 209.686 257.955 208.678C258.164 207.672 258.02 206.61 257.55 205.727C257.082 204.844 256.33 204.212 255.458 203.97C255.039 203.855 254.603 203.833 254.177 203.905C254.171 203.329 253.996 202.773 253.678 202.328C253.362 201.883 252.923 201.577 252.435 201.458C251.947 201.34 251.438 201.418 250.993 201.678C250.549 201.939 250.194 202.367 249.988 202.892C249.448 201.213 248.351 199.851 246.942 199.103C247.09 198.814 247.201 198.5 247.267 198.173C247.452 197.289 247.323 196.358 246.913 195.583C246.501 194.808 245.842 194.253 245.076 194.04C244.651 193.922 244.208 193.915 243.782 194.02C243.307 192.52 242.44 191.228 241.303 190.321C240.165 189.415 238.811 188.937 237.427 188.956C236.045 188.974 234.701 189.487 233.583 190.424C232.462 191.361 231.622 192.675 231.176 194.186C230.684 194.186 230.206 194.377 229.819 194.729C229.432 195.08 229.158 195.572 229.042 196.124C229 196.338 228.981 196.558 228.984 196.777C228.07 196.751 227.163 196.972 226.335 197.423C225.508 197.874 224.783 198.543 224.22 199.375C223.918 199.208 223.604 199.078 223.278 198.987C222.671 198.819 222.041 198.792 221.424 198.906C220.807 199.019 220.216 199.272 219.685 199.65C219.152 200.028 218.689 200.523 218.324 201.107C217.957 201.691 217.693 202.353 217.549 203.054Z" fill="#B2B6BB"/>
<path d="M239.42 212.777C237.372 212.498 235.321 212.275 233.295 212.099C232.421 212.02 231.552 211.956 230.69 211.891H230.632C229.127 211.789 227.649 211.707 226.2 211.651L225.419 211.618C224.803 211.597 224.191 211.576 223.585 211.563C223.11 211.547 222.639 211.538 222.171 211.53C220.275 211.495 218.469 211.49 216.777 211.509C216.037 211.517 215.321 211.528 214.631 211.543C213.704 211.561 212.824 211.586 211.995 211.616C207.116 211.785 204.045 212.081 204.045 212.081C203.756 211.524 203.624 210.879 203.667 210.232C203.821 208.174 205.794 206.686 208.096 206.895C208.027 206.56 208.005 206.215 208.031 205.873C208.195 203.668 210.293 202.072 212.728 202.312C214.752 202.52 216.365 203.924 216.75 205.666C217.357 205.479 217.988 205.416 218.613 205.48C219.674 205.569 220.684 206.036 221.504 206.818C222.115 206.889 222.713 207.08 223.267 207.385C224.046 206.035 225.674 205.197 227.481 205.374C227.859 205.411 228.231 205.493 228.594 205.618C229.102 205.501 229.62 205.468 230.135 205.52C231.98 205.702 233.483 206.889 234.025 208.418C234.461 208.337 234.902 208.32 235.341 208.365C237.751 208.589 239.585 210.57 239.42 212.777Z" fill="#B2B6BB"/>
<path d="M242 210.848C241.972 212.333 253.282 213.078 253.309 211.663C253.32 211.048 253.139 210.447 252.798 209.974C252.456 209.5 251.978 209.183 251.452 209.085C251.526 208.87 251.566 208.643 251.569 208.411C251.575 208.154 251.535 207.898 251.456 207.658C251.374 207.419 251.255 207.2 251.1 207.013C250.946 206.827 250.762 206.678 250.558 206.575C250.355 206.471 250.135 206.414 249.913 206.409C249.862 206.406 249.81 206.406 249.759 206.409C249.499 205.126 248.404 204.145 247.072 204.114C245.524 204.074 244.245 205.328 244.214 206.916C244.205 207.376 244.304 207.831 244.499 208.232C243.13 208.303 242.028 209.44 242 210.848Z" fill="#B2B6BB"/>
<path opacity="0.1" d="M239.601 212.777C237.552 212.498 235.501 212.275 233.476 212.099C232.602 212.02 231.732 211.956 230.871 211.891H230.813C229.308 211.789 227.83 211.707 226.381 211.651L225.6 211.618C224.984 211.597 224.371 211.576 223.766 211.563C223.291 211.547 222.819 211.538 222.351 211.53C220.456 211.495 218.649 211.49 216.958 211.509C216.217 211.517 215.502 211.528 214.812 211.543C213.885 211.561 213.005 211.586 212.175 211.616C207.297 211.785 204.225 212.081 204.225 212.081C203.936 211.524 203.804 210.879 203.848 210.232C204.001 208.174 205.974 206.686 208.276 206.895C208.208 206.56 208.186 206.215 208.211 205.873C208.376 203.668 210.473 202.072 212.909 202.312C214.933 202.52 216.546 203.924 216.931 205.666C217.538 205.479 218.169 205.416 218.794 205.48C219.854 205.569 220.864 206.036 221.685 206.818C222.295 206.889 222.893 207.08 223.448 207.385C224.227 206.035 225.855 205.197 227.662 205.374C228.039 205.411 228.411 205.493 228.775 205.618C229.282 205.501 229.801 205.468 230.316 205.52C232.161 205.702 233.664 206.889 234.206 208.418C234.641 208.337 235.082 208.32 235.521 208.365C237.932 208.589 239.766 210.57 239.601 212.777Z" fill="black"/>
<g opacity="0.1">
<path opacity="0.1" d="M242.181 210.848C242.152 212.333 253.463 213.078 253.49 211.663C253.501 211.048 253.32 210.447 252.979 209.974C252.637 209.5 252.158 209.183 251.633 209.085C251.707 208.87 251.746 208.643 251.75 208.411C251.756 208.154 251.716 207.898 251.636 207.658C251.555 207.419 251.436 207.2 251.28 207.013C251.127 206.827 250.942 206.678 250.738 206.575C250.536 206.471 250.315 206.414 250.093 206.409C250.043 206.406 249.99 206.406 249.94 206.409C249.679 205.126 248.585 204.145 247.253 204.114C245.704 204.074 244.425 205.328 244.395 206.916C244.386 207.376 244.485 207.831 244.68 208.232C243.31 208.303 242.208 209.44 242.181 210.848Z" fill="black"/>
</g>
<path d="M49.7406 205.752C49.7406 205.752 87.3224 196.573 123.459 214.722H211.451C211.451 214.722 247.045 205.334 256.983 212.218L253.712 226.299L51.2276 226.195L49.7406 205.752Z" fill="#DADDDF"/>
<path d="M236.67 109.474C236.67 109.474 227.998 119.039 222.906 118.091L220.557 121.511C220.557 121.511 230.256 122.466 236.67 109.474Z" fill="#3F4249"/>
<path opacity="0.1" d="M236.67 109.474C236.67 109.474 230.41 119.708 222.187 120.075L223.632 117.931C223.632 117.931 227.183 119.443 236.67 109.474Z" fill="black"/>
<path d="M199.3 107.167C199.3 107.167 198.483 120.985 194.176 124.247L194.436 128.603C194.436 128.603 202.155 121.755 199.3 107.167Z" fill="#3F4249"/>
<path opacity="0.3" d="M199.3 107.167C199.3 107.167 200.659 119.6 194.805 126.275L194.624 123.563C194.624 123.563 198.12 121.915 199.3 107.167Z" fill="black"/>
<path d="M227.434 102.93C227.434 102.93 219.058 126.373 209.94 129.15L208.199 136.881C208.199 136.881 225.049 130.17 227.434 102.93Z" fill="#3F4249"/>
<path opacity="0.3" d="M227.434 102.93C227.434 102.93 223.533 125.424 210.005 133.09L211.044 128.255C211.044 128.255 217.955 127.744 227.434 102.93Z" fill="black"/>
<path d="M187.988 109.518C187.988 109.518 196.362 132.961 205.481 135.737L207.225 143.466C207.225 143.466 190.374 136.755 187.988 109.518Z" fill="#3F4249"/>
<path opacity="0.3" d="M187.988 109.518C187.988 109.518 191.89 132.01 205.416 139.674L204.377 134.84C204.377 134.84 197.462 134.325 187.988 109.518Z" fill="black"/>
<path d="M206.453 92.8731L204.131 196.663L213.265 196.337L209.339 92.7646L206.453 92.8731Z" fill="#3F4249"/>
<path opacity="0.3" d="M207.738 92.846L208.459 196.421L213.265 196.337L209.339 92.7646L207.738 92.846Z" fill="black"/>
<path d="M233.021 58.1153C231.767 58.1185 230.518 58.268 229.291 58.5617C225.969 50.5659 217.934 44.9169 208.535 44.9169C200.868 44.9169 194.08 48.6968 190.056 54.4501C188.774 54.1625 187.471 54.0173 186.164 54.0162C176.375 54.0162 168.439 61.7555 168.439 71.2825C168.439 79.3472 174.098 86.0935 181.752 88.0064V88.5613H233.021C241.654 88.5613 248.648 81.7482 248.648 73.3331C248.648 64.918 241.654 58.1153 233.021 58.1153Z" fill="#4D61FC"/>
<g opacity="0.2">
<path opacity="0.2" d="M233.021 58.1153C231.767 58.1185 230.518 58.268 229.291 58.5617C225.969 50.5659 217.934 44.9169 208.535 44.9169C200.868 44.9169 194.08 48.6968 190.056 54.4501C188.774 54.1625 187.471 54.0173 186.164 54.0162C176.375 54.0162 168.439 61.7555 168.439 71.2825C168.439 79.3472 174.098 86.0935 181.752 88.0064V88.5613H233.021C241.654 88.5613 248.648 81.7482 248.648 73.3331C248.648 64.918 241.654 58.1153 233.021 58.1153Z" fill="white"/>
</g>
<path opacity="0.2" d="M235.362 58.3052C232.867 72.1816 216.391 82.9018 196.418 82.9018C185.653 82.9018 175.903 79.7853 168.806 74.7391C170.16 81.2226 175.222 86.373 181.752 88.0064V88.5613H233.021C241.654 88.5613 248.648 81.7483 248.648 73.3331C248.648 65.7107 242.889 59.4045 235.362 58.3052Z" fill="black"/>
<path d="M246.852 88.0127C245.941 88.014 245.032 88.1224 244.142 88.3361C241.73 82.5347 235.904 78.4377 229.085 78.4377C223.526 78.4377 218.606 81.1809 215.682 85.3509C214.752 85.1429 213.807 85.0382 212.86 85.038C205.758 85.038 200.005 90.6516 200.005 97.5543C200.005 103.395 204.108 108.293 209.66 109.683V110.087H246.845C253.109 110.087 258.181 105.143 258.181 99.0438C258.181 92.9442 253.116 88.0127 246.852 88.0127Z" fill="#4D61FC"/>
<g opacity="0.2">
<path opacity="0.2" d="M246.852 88.0127C245.941 88.014 245.032 88.1224 244.142 88.3361C241.73 82.5347 235.904 78.4377 229.085 78.4377C223.526 78.4377 218.606 81.1809 215.682 85.3509C214.752 85.1429 213.807 85.0382 212.86 85.038C205.758 85.038 200.005 90.6516 200.005 97.5543C200.005 103.395 204.108 108.293 209.66 109.683V110.087H246.845C253.109 110.087 258.181 105.143 258.181 99.0438C258.181 92.9442 253.116 88.0127 246.852 88.0127Z" fill="white"/>
</g>
<path opacity="0.2" d="M248.61 88.4111C246.803 98.4763 234.849 106.251 220.362 106.251C212.557 106.251 205.485 103.99 200.337 100.331C201.318 105.031 204.99 108.769 209.733 109.956V110.352H246.917C253.179 110.352 258.255 105.41 258.255 99.3087C258.247 93.7723 254.065 89.2101 248.61 88.4111Z" fill="black"/>
<path d="M205.45 88.8658C204.54 88.869 203.633 88.9779 202.74 89.1913C200.332 83.3941 194.503 79.2971 187.688 79.2971C182.125 79.2971 177.208 82.034 174.283 86.2082C173.353 85.9998 172.408 85.8936 171.461 85.8911C164.362 85.8911 158.604 91.5047 158.604 98.4179C158.604 104.259 162.707 109.159 168.261 110.546V110.519L205.445 110.949C211.706 110.949 216.781 106.009 216.781 99.9094C216.781 93.8098 211.711 88.8658 205.45 88.8658Z" fill="#4D61FC"/>
<g opacity="0.2">
<path opacity="0.2" d="M205.45 88.8658C204.54 88.869 203.633 88.9779 202.74 89.1913C200.332 83.3941 194.503 79.2971 187.688 79.2971C182.125 79.2971 177.208 82.034 174.283 86.2082C173.353 85.9998 172.408 85.8936 171.461 85.8911C164.362 85.8911 158.604 91.5047 158.604 98.4179C158.604 104.259 162.707 109.159 168.261 110.546V110.519L205.445 110.949C211.706 110.949 216.781 106.009 216.781 99.9094C216.781 93.8098 211.711 88.8658 205.45 88.8658Z" fill="white"/>
</g>
<path opacity="0.2" d="M207.149 89.0098C205.342 99.0729 193.388 106.852 178.903 106.852C171.094 106.852 164.024 104.59 158.878 100.932C159.857 105.631 163.531 109.368 168.274 110.55V110.523L205.458 110.953C211.718 110.953 216.794 106.013 216.794 99.9136C216.786 94.373 212.604 89.8066 207.149 89.0098Z" fill="black"/>
<path d="M178.728 107.296C178.728 107.296 185.285 118.905 190.425 119.322L192.039 123.265C192.039 123.265 182.406 121.64 178.728 107.296Z" fill="#3F4249"/>
<path opacity="0.3" d="M178.728 107.296C178.728 107.296 182.802 118.913 190.734 121.435L189.751 118.963C189.751 118.963 185.997 119.502 178.728 107.296Z" fill="black"/>
<path d="M236.566 192.401H98.3441V226.195H236.566V192.401Z" fill="#868A91"/>
<path d="M198.78 185.815C198.78 185.815 203.046 187.809 203.401 192.443H204.215C204.215 192.443 203.808 187.048 198.78 185.815Z" fill="#4D61FC"/>
<path d="M204.775 192.443C204.775 192.443 204.466 188.337 200.639 187.399C200.639 187.399 203.891 188.917 204.157 192.443H204.775Z" fill="#4D61FC"/>
<path d="M209.407 185.786C209.407 185.786 205.14 187.78 204.785 192.413H203.972C203.972 192.413 204.379 187.019 209.407 185.786Z" fill="#4D61FC"/>
<path d="M204.345 192.733C204.345 192.733 202.737 189.053 205.564 185.932C205.564 185.932 203.494 189.195 204.87 192.357L204.345 192.733Z" fill="#4D61FC"/>
<g opacity="0.2">
<path opacity="0.2" d="M204.775 192.443C204.775 192.443 204.466 188.337 200.639 187.399C200.639 187.399 203.891 188.917 204.157 192.443H204.775Z" fill="black"/>
</g>
<g opacity="0.2">
<path opacity="0.2" d="M204.345 192.733C204.345 192.733 202.737 189.053 205.564 185.932C205.564 185.932 203.494 189.195 204.87 192.357L204.345 192.733Z" fill="black"/>
</g>
<path d="M204.809 183.639C204.809 183.639 202.545 188.268 204.766 192.148L204.128 192.732C204.128 192.732 201.537 188.218 204.809 183.639Z" fill="#4D61FC"/>
<g opacity="0.2">
<path opacity="0.2" d="M204.809 183.639C204.809 183.639 202.545 188.268 204.766 192.148L204.128 192.732C204.128 192.732 201.537 188.218 204.809 183.639Z" fill="white"/>
</g>
<path d="M119.099 187.901C119.099 187.901 123.365 189.896 123.721 194.529H124.543C124.543 194.529 124.127 189.134 119.099 187.901Z" fill="#4D61FC"/>
<path d="M125.094 194.529C125.094 194.529 124.785 190.423 120.958 189.485C120.958 189.485 124.21 191.003 124.476 194.529H125.094Z" fill="#4D61FC"/>
<path d="M129.726 187.872C129.726 187.872 125.459 189.866 125.105 194.499H124.292C124.292 194.499 124.698 189.105 129.726 187.872Z" fill="#4D61FC"/>
<path d="M124.664 194.819C124.664 194.819 123.056 191.139 125.883 188.018C125.883 188.018 123.813 191.281 125.19 194.443L124.664 194.819Z" fill="#4D61FC"/>
<g opacity="0.2">
<path opacity="0.2" d="M125.094 194.529C125.094 194.529 124.785 190.423 120.958 189.485C120.958 189.485 124.21 191.003 124.476 194.529H125.094Z" fill="black"/>
</g>
<g opacity="0.2">
<path opacity="0.2" d="M124.664 194.819C124.664 194.819 123.056 191.139 125.883 188.018C125.883 188.018 123.813 191.281 125.19 194.443L124.664 194.819Z" fill="black"/>
</g>
<path d="M125.128 185.725C125.128 185.725 122.864 190.354 125.085 194.234L124.447 194.819C124.447 194.819 121.856 190.304 125.128 185.725Z" fill="#4D61FC"/>
<g opacity="0.2">
<path opacity="0.2" d="M125.128 185.725C125.128 185.725 122.864 190.354 125.085 194.234L124.447 194.819C124.447 194.819 121.856 190.304 125.128 185.725Z" fill="white"/>
</g>
<path d="M204.2 182.442C204.2 182.442 211.066 185.648 211.635 193.102H212.943C212.943 193.102 212.287 184.422 204.2 182.442Z" fill="#4D61FC"/>
<path d="M213.845 193.102C213.845 193.102 213.346 186.495 207.19 184.989C207.19 184.989 212.414 187.43 212.849 193.102H213.845Z" fill="#4D61FC"/>
<path d="M221.294 182.394C221.294 182.394 214.428 185.6 213.859 193.054H212.553C212.553 193.054 213.205 184.374 221.294 182.394Z" fill="#4D61FC"/>
<path d="M213.151 193.567C213.151 193.567 210.564 187.649 215.113 182.628C215.113 182.628 211.783 187.876 213.998 192.962L213.151 193.567Z" fill="#4D61FC"/>
<g opacity="0.2">
<path opacity="0.2" d="M213.845 193.102C213.845 193.102 213.346 186.495 207.19 184.989C207.19 184.989 212.414 187.43 212.849 193.102H213.845Z" fill="black"/>
</g>
<g opacity="0.2">
<path opacity="0.2" d="M213.151 193.567C213.151 193.567 210.564 187.649 215.113 182.628C215.113 182.628 211.783 187.876 213.998 192.962L213.151 193.567Z" fill="black"/>
</g>
<path d="M213.899 178.942C213.899 178.942 210.257 186.385 213.829 192.628L212.804 193.567C212.804 193.567 208.636 186.305 213.899 178.942Z" fill="#4D61FC"/>
<g opacity="0.2">
<path opacity="0.2" d="M213.899 178.942C213.899 178.942 210.257 186.385 213.829 192.628L212.804 193.567C212.804 193.567 208.636 186.305 213.899 178.942Z" fill="white"/>
</g>
<path opacity="0.15" d="M236.566 192.401H98.3441V226.195H236.566V192.401Z" fill="black"/>
<path d="M225.002 192.401H94.369V226.195H225.002V192.401Z" fill="#868A91"/>
<path d="M112.168 217.018C112.291 217.809 112.488 218.583 112.755 219.323C113.072 220.185 113.255 221.103 113.297 222.035C113.297 222.488 114.159 222.759 114.159 222.759L114.434 226.195H100.341C100.341 226.195 101.085 223.98 101.555 223.98C102.039 223.95 102.522 223.89 103 223.8L104.527 219.956L105.441 218.495C105.774 217.961 106.217 217.529 106.73 217.242C107.243 216.954 107.809 216.816 108.379 216.843L112.168 217.018Z" fill="#61656D"/>
<path opacity="0.2" d="M112.168 217.018C112.168 217.018 111.109 217.244 110.797 217.605C110.484 217.966 109.935 220.137 109.935 220.137L109.543 221.222L106.019 221.539L104.672 219.73L105.743 218.007C105.984 217.619 106.305 217.308 106.676 217.1C107.048 216.891 107.459 216.791 107.871 216.812L112.168 217.018Z" fill="white"/>
<path opacity="0.3" d="M112.334 226.195L109.66 225.258L104.433 226.195H112.334Z" fill="black"/>
<path opacity="0.3" d="M109.543 221.222L109.66 225.258L104.433 226.195L106.019 221.539L109.543 221.222Z" fill="black"/>
<path d="M105.89 223.877C105.891 223.887 105.889 223.897 105.885 223.908C105.882 223.918 105.877 223.926 105.87 223.935C105.864 223.943 105.856 223.947 105.847 223.951C105.839 223.955 105.829 223.958 105.82 223.958C105.801 223.958 105.784 223.949 105.771 223.935C105.757 223.918 105.75 223.897 105.75 223.877C105.75 223.856 105.758 223.835 105.771 223.821C105.784 223.804 105.802 223.796 105.82 223.796C105.839 223.796 105.857 223.804 105.87 223.819C105.883 223.835 105.89 223.856 105.89 223.877Z" fill="#514A4A"/>
<path opacity="0.3" d="M111.714 219.109C111.714 219.109 112.683 220.777 112.683 221.756C112.683 222.734 113.308 223.425 113.624 223.796C113.941 224.167 113.624 226.195 113.624 226.195H112.341C112.341 226.195 113.182 224.472 112.739 223.959C112.296 223.446 112.175 222.361 112.175 221.539C112.175 220.717 111.714 219.109 111.714 219.109Z" fill="black"/>
<path opacity="0.2" d="M101.574 224.251C101.574 224.251 103.983 225.903 103.983 225.484C103.983 225.064 103.199 224.094 103.199 224.094C103.106 224.165 102.998 224.205 102.886 224.207C102.4 224.263 101.574 224.017 101.574 224.251Z" fill="white"/>
<path d="M77.8386 217.018C77.9618 217.809 78.1586 218.583 78.4258 219.323C78.742 220.185 78.9254 221.103 78.9679 222.035C78.9679 222.488 79.8297 222.759 79.8297 222.759L80.1044 226.195H66.0112C66.0112 226.195 66.7556 223.98 67.2254 223.98C67.7096 223.95 68.1922 223.89 68.6708 223.8L70.1976 219.956L71.1118 218.495C71.4448 217.961 71.8875 217.529 72.4003 217.242C72.913 216.954 73.4798 216.816 74.0497 216.843L77.8386 217.018Z" fill="#61656D"/>
<path opacity="0.2" d="M77.8384 217.018C77.8384 217.018 76.7796 217.244 76.467 217.605C76.1545 217.966 75.6052 220.137 75.6052 220.137L75.2131 221.222L71.6898 221.539L70.3419 219.73L71.4134 218.007C71.6544 217.619 71.9751 217.308 72.3468 217.1C72.7182 216.891 73.1289 216.791 73.5418 216.812L77.8384 217.018Z" fill="white"/>
<path opacity="0.3" d="M78.0045 226.195L75.3304 225.258L70.1033 226.195H78.0045Z" fill="black"/>
<path opacity="0.3" d="M75.2129 221.222L75.3304 225.258L70.1033 226.195L71.6897 221.539L75.2129 221.222Z" fill="black"/>
<path d="M71.5606 223.877C71.561 223.887 71.5594 223.897 71.5558 223.908C71.5523 223.918 71.5473 223.926 71.5407 223.935C71.5342 223.943 71.5263 223.947 71.5176 223.951C71.509 223.955 71.4998 223.958 71.4905 223.958C71.4719 223.958 71.4541 223.949 71.441 223.935C71.4277 223.918 71.4203 223.897 71.4203 223.877C71.4208 223.856 71.4284 223.835 71.4413 223.821C71.4545 223.804 71.4721 223.796 71.4905 223.796C71.5092 223.796 71.527 223.804 71.5401 223.819C71.5532 223.835 71.5606 223.856 71.5606 223.877Z" fill="#514A4A"/>
<path opacity="0.3" d="M77.3849 219.109C77.3849 219.109 78.3533 220.777 78.3533 221.756C78.3533 222.734 78.9785 223.425 79.2947 223.796C79.6109 224.167 79.2947 226.195 79.2947 226.195H78.0119C78.0119 226.195 78.852 224.472 78.4094 223.959C77.9667 223.446 77.8456 222.361 77.8456 221.539C77.8456 220.717 77.3849 219.109 77.3849 219.109Z" fill="black"/>
<path opacity="0.2" d="M67.2449 224.251C67.2449 224.251 69.6534 225.903 69.6534 225.484C69.6534 225.064 68.8692 224.094 68.8692 224.094C68.7762 224.165 68.6679 224.205 68.5566 224.207C68.0706 224.263 67.2449 224.017 67.2449 224.251Z" fill="white"/>
<path d="M219.323 209.44C219.323 209.44 218.962 211.891 218.223 213.752C217.627 215.362 217.28 217.079 217.198 218.827C217.198 219.661 215.587 220.179 215.587 220.179L215.074 226.606H241.453C241.453 226.606 240.062 222.463 239.182 222.463C238.302 222.463 236.472 222.125 236.472 222.125L233.615 214.937L231.906 212.189C231.284 211.188 230.455 210.381 229.496 209.842C228.536 209.302 227.476 209.045 226.41 209.098L219.323 209.44Z" fill="#61656D"/>
<path opacity="0.2" d="M219.323 209.44C219.323 209.44 221.3 209.857 221.887 210.539C222.474 211.221 223.497 215.274 223.497 215.274L224.23 217.304L230.823 217.897L233.342 214.513L231.338 211.29C230.889 210.566 230.289 209.982 229.595 209.592C228.901 209.202 228.135 209.016 227.363 209.052L219.323 209.44Z" fill="white"/>
<path opacity="0.3" d="M219.011 226.612L224.01 224.858L233.788 226.612H219.011Z" fill="black"/>
<path opacity="0.3" d="M224.23 217.31L224.01 224.858L233.789 226.612L230.822 217.903L224.23 217.31Z" fill="black"/>
<path d="M231.06 222.277C231.06 222.307 231.067 222.338 231.082 222.363C231.096 222.388 231.118 222.407 231.141 222.417C231.166 222.43 231.192 222.432 231.217 222.428C231.244 222.421 231.267 222.407 231.285 222.386C231.303 222.363 231.316 222.336 231.321 222.307C231.327 222.277 231.323 222.246 231.314 222.219C231.303 222.192 231.287 222.167 231.265 222.15C231.244 222.133 231.219 222.125 231.192 222.125C231.175 222.125 231.157 222.129 231.141 222.138C231.125 222.144 231.111 222.156 231.098 222.169C231.087 222.183 231.076 222.2 231.071 222.219C231.064 222.238 231.06 222.256 231.06 222.277Z" fill="#514A4A"/>
<path opacity="0.3" d="M220.183 213.357C220.183 213.357 218.376 216.486 218.376 218.31C218.376 220.133 217.209 221.439 216.62 222.125C216.031 222.811 216.62 226.612 216.62 226.612H219.018C219.018 226.612 217.444 223.387 218.273 222.44C219.103 221.493 219.33 219.451 219.33 217.913C219.33 216.376 220.183 213.357 220.183 213.357Z" fill="black"/>
<path opacity="0.2" d="M239.137 222.962C239.137 222.962 234.632 226.049 234.632 225.256C234.632 224.464 236.098 222.655 236.098 222.655C236.273 222.786 236.475 222.857 236.683 222.864C237.592 222.999 239.137 222.538 239.137 222.962Z" fill="white"/>
<path d="M168.316 174.35C168.323 174.333 168.328 174.314 168.329 174.294C168.351 173.891 168.853 168.958 168.99 167.037C169.072 165.893 169.834 161.648 172.729 159.414C174.754 157.852 177.445 157.293 180.888 159.377C180.92 159.395 180.945 159.425 180.959 159.462C180.973 159.499 180.976 159.541 180.966 159.58C180.956 159.619 180.935 159.652 180.906 159.675C180.877 159.698 180.842 159.708 180.807 159.704H180.729C180.692 159.701 180.655 159.713 180.625 159.74C180.595 159.766 180.575 159.805 180.569 159.847C180.563 159.89 180.57 159.934 180.591 159.97C180.611 160.007 180.642 160.033 180.679 160.044C181.359 160.264 182.006 160.601 182.599 161.043C182.625 161.063 182.644 161.092 182.655 161.125C182.666 161.158 182.667 161.194 182.66 161.229C182.652 161.263 182.636 161.294 182.613 161.317C182.59 161.34 182.561 161.355 182.531 161.358C182.208 161.402 181.889 161.472 181.575 161.567C181.543 161.577 181.515 161.599 181.495 161.629C181.476 161.659 181.465 161.696 181.465 161.734C181.465 161.772 181.476 161.809 181.495 161.839C181.515 161.869 181.543 161.891 181.575 161.901C182.162 162.099 182.728 162.372 183.264 162.712C183.405 162.808 183.331 162.9 183.17 162.879C182.71 162.821 182.059 162.908 181.459 162.906C181.424 162.905 181.389 162.919 181.362 162.945C181.334 162.971 181.315 163.007 181.309 163.048C181.302 163.088 181.308 163.13 181.326 163.165C181.344 163.201 181.372 163.228 181.405 163.242C181.602 163.334 181.817 163.438 182.014 163.553C182.043 163.57 182.066 163.596 182.081 163.629C182.095 163.663 182.101 163.7 182.095 163.737C182.09 163.773 182.075 163.807 182.053 163.833C182.03 163.86 182 163.877 181.969 163.882C180.999 164.035 179.425 164.65 178.624 167.074C178.285 168.07 178.014 169.096 177.813 170.141C177.806 170.181 177.812 170.223 177.83 170.259C177.848 170.295 177.876 170.323 177.909 170.337C177.942 170.352 177.979 170.352 178.013 170.338C178.047 170.324 178.075 170.297 178.093 170.262L178.106 170.237C178.125 170.203 178.153 170.178 178.187 170.166C178.22 170.154 178.255 170.155 178.288 170.17C178.32 170.185 178.347 170.212 178.365 170.247C178.382 170.281 178.388 170.322 178.382 170.362C178.312 170.779 178.23 171.325 178.189 171.834C178.113 172.794 177.547 183.737 167.821 183.099C167.79 183.097 167.76 183.084 167.735 183.062L166.125 181.583C166.101 181.56 166.084 181.531 166.076 181.497C166.067 181.464 166.067 181.428 166.076 181.395L167.135 177.454V177.436L168.316 174.35Z" fill="#4D61FC"/>
<path d="M184.215 161.6C184.215 161.6 182.549 161.379 181.765 161.742C181.765 161.742 183.489 162.201 184.475 163.133C184.475 163.133 182.518 162.793 181.385 162.956C181.385 162.956 182.563 163.384 183.113 163.839C183.113 163.839 181.27 163.901 179.875 165.159C179.875 165.159 178.532 164.598 177.62 164.923C177.62 164.923 178.265 162.952 179.091 162.211C179.091 162.211 177.224 162.341 176.503 162.8C176.54 162.712 177.164 161.279 177.67 160.897C177.67 160.897 175.755 160.972 175.103 161.571C175.103 161.571 175.591 160.027 176.106 159.593C176.106 159.593 173.855 159.675 173.014 160.482C173.052 160.405 173.717 159.132 174.194 158.571C176.362 157.666 179.297 157.737 182.236 159.81C182.953 160.318 183.617 160.918 184.215 161.6Z" fill="white"/>
<path opacity="0.2" d="M176.162 172.099C176.252 170.335 176.386 170.013 176.789 168.528C177.237 166.859 177.677 165.664 178.353 164.89C178.368 164.872 178.386 164.859 178.406 164.85C178.426 164.841 178.448 164.837 178.469 164.838C178.853 164.867 179.233 164.945 179.602 165.069C179.628 165.078 179.651 165.094 179.669 165.117C179.688 165.14 179.701 165.167 179.707 165.198C179.713 165.228 179.711 165.26 179.703 165.289C179.695 165.319 179.68 165.345 179.66 165.366C179.2 165.833 178.847 166.424 178.631 167.087C178.29 168.083 178.019 169.11 177.82 170.157C177.814 170.2 177.821 170.244 177.841 170.281C177.861 170.318 177.893 170.345 177.929 170.356C177.965 170.368 178.004 170.364 178.038 170.344C178.071 170.325 178.098 170.292 178.111 170.251C178.13 170.218 178.159 170.193 178.192 170.181C178.225 170.169 178.261 170.17 178.293 170.185C178.326 170.199 178.353 170.226 178.37 170.261C178.387 170.296 178.393 170.337 178.388 170.376C178.319 170.793 178.236 171.342 178.196 171.849C178.118 172.807 177.553 183.752 167.827 183.114C167.795 183.111 167.765 183.097 167.74 183.074L166.132 181.597C166.108 181.575 166.091 181.546 166.082 181.512C166.073 181.479 166.074 181.443 166.083 181.409L167.142 177.461V177.446L168.284 174.394C168.336 174.233 168.45 174.085 168.484 174.25C169.227 177.869 171.314 178.268 172.459 178.195C172.459 178.195 173.341 178.195 174.588 176.735C175.103 176.134 175.508 175.42 175.778 174.634C176.048 173.848 176.178 173.007 176.16 172.162C176.163 172.126 176.162 172.11 176.162 172.099Z" fill="black"/>
<path opacity="0.1" d="M178.402 164.825C178.901 164.857 179.393 164.968 179.866 165.155C179.948 165.08 180.033 165.011 180.121 164.946H180.131C180.219 164.874 180.311 164.808 180.406 164.75C180.583 164.628 180.768 164.52 180.959 164.429C181.14 164.339 181.32 164.262 181.501 164.197C181.586 164.162 181.672 164.132 181.759 164.108C181.852 164.078 181.94 164.053 182.03 164.031C182.121 164.008 182.171 163.991 182.236 163.974C182.5 163.918 182.721 163.884 182.872 163.864H182.979C183.059 163.864 183.104 163.864 183.104 163.864C182.562 163.409 181.376 162.981 181.376 162.981C182.509 162.819 184.466 163.159 184.466 163.159C184.333 163.036 184.193 162.922 184.049 162.816C183.92 162.773 181.92 162.132 179.996 162.552C180.143 162.927 180.411 163.221 180.742 163.373C179.859 163.593 179.048 164.096 178.402 164.825Z" fill="black"/>
<path d="M166.422 170.268C165.433 167.172 164.771 163.95 164.449 160.672H161.536C160.271 159.543 159.296 159.527 158.058 160.672H156.013C155.523 163.175 153.554 170.034 153.554 170.034C150.742 180.31 149.913 190.346 159.787 188.938C169.553 190.173 169.894 182.179 166.422 170.268Z" fill="#4D61FC"/>
<path d="M164.432 172.245C163.389 170.145 163.209 166.884 163.209 166.884C163.122 164.316 163.646 162.685 163.646 162.685C161.554 159.765 159.985 159.652 159.985 159.652C159.985 159.652 158.417 159.301 156.24 162.451C156.562 163.898 156.695 165.392 156.636 166.884C156.636 166.884 156.589 170.149 155.551 172.25C155.551 172.25 150.724 183.483 157.163 188.364C157.163 188.364 158.862 188.928 159.994 188.811C161.127 188.928 162.827 188.248 162.827 188.248C169.258 183.364 164.432 172.245 164.432 172.245Z" fill="white"/>
<path d="M154.088 177.406C154.088 177.406 153.66 177.963 153.66 178.431C153.66 178.431 154.021 178.051 153.963 178.241C153.963 178.241 153.532 178.898 153.66 179.211L153.875 179.052L154.088 177.406Z" fill="white"/>
<path d="M165.758 176.58C165.758 176.58 166.201 177.12 166.213 177.588C166.213 177.588 165.852 177.221 165.903 177.411C165.903 177.411 166.352 178.051 166.231 178.368L166.011 178.218L165.758 176.58Z" fill="white"/>
<path opacity="0.2" d="M154.008 169.744L156.003 172.197L159.513 166.899L159.783 167.677L156.003 174.067L154.008 169.744Z" fill="black"/>
<path opacity="0.2" d="M151.826 183.222V182.179C151.826 182.179 156.524 186.351 160.679 186.351C163.389 186.351 168.449 182.388 168.449 182.388L168.268 183.222L160.592 189.808L151.826 183.222Z" fill="black"/>
<path d="M153.958 169.686L156.003 173.288L159.548 166.926C159.548 166.926 160.132 166.926 159.812 168.787C159.703 169.403 159.534 170.002 159.31 170.575L156.805 177.058C156.721 177.304 156.575 177.515 156.386 177.664C156.196 177.813 155.972 177.892 155.743 177.892C155.575 177.893 155.408 177.85 155.256 177.767C155.103 177.685 154.969 177.564 154.861 177.415L152.717 173.927L153.958 169.686Z" fill="#4D61FC"/>
<path opacity="0.2" d="M156.481 163.457C156.481 163.457 157.639 164.275 158.445 164.836C159.207 165.368 160.232 165.424 161.11 165.253C161.822 165.117 163.572 164.256 164.53 162.045L156.481 163.457Z" fill="black"/>
<path d="M158.572 189.831L171.451 180.946C172.318 180.341 173.355 180.15 174.342 180.412C174.754 180.531 175.134 180.766 175.447 181.097C175.759 181.429 175.995 181.845 176.133 182.309C176.266 182.733 176.323 183.183 176.299 183.634C176.276 184.084 176.173 184.524 175.997 184.927C175.618 185.797 175.029 186.521 174.301 187.013C172.651 188.112 169.285 189.973 164.595 190.655C162.998 190.882 161.433 191.34 159.937 192.019C159.608 192.164 159.288 192.332 158.977 192.522C158.178 193.057 157.255 193.295 156.334 193.202C155.551 193.107 154.783 192.885 154.054 192.543C153.711 192.383 153.399 192.145 153.138 191.842C152.877 191.54 152.672 191.179 152.536 190.782C152.341 190.215 152.314 189.647 152.881 189.497C153.056 189.455 153.237 189.464 153.409 189.524C154.202 189.785 157.259 190.709 158.572 189.831Z" fill="#4D61FC"/>
<path opacity="0.2" d="M175.752 181.499C175.872 182.416 175.736 183.353 175.365 184.175C174.995 184.998 174.407 185.663 173.688 186.076C173.688 186.076 168.561 189.341 163.57 189.966L163.512 190.868C163.874 190.792 164.235 190.726 164.596 190.674C169.294 189.991 172.653 188.131 174.303 187.031C175.031 186.54 175.62 185.815 175.999 184.945C176.175 184.542 176.278 184.103 176.301 183.652C176.324 183.202 176.268 182.751 176.135 182.327C176.043 182.031 175.914 181.752 175.752 181.499Z" fill="black"/>
<path d="M161.559 187.774L158.573 189.831C157.259 190.705 154.202 189.781 153.409 189.518C153.238 189.458 153.056 189.449 152.881 189.491C152.314 189.641 152.339 190.208 152.536 190.776C152.673 191.173 152.877 191.533 153.138 191.836C153.399 192.139 153.711 192.377 154.054 192.536C154.782 192.883 155.549 193.108 156.332 193.208C157.252 193.305 158.175 193.073 158.975 192.543C159.286 192.353 159.607 192.185 159.935 192.04C161.431 191.358 162.996 190.896 164.593 190.665L165.092 190.586C163.733 190.832 161.559 187.774 161.559 187.774Z" fill="#21252B"/>
<path opacity="0.3" d="M155.758 190.665C155.758 190.665 158.916 191.786 159.418 192.274L160.322 191.856L156.394 190.396L155.758 190.665Z" fill="black"/>
<path opacity="0.3" d="M160.847 188.264C160.847 188.264 162.079 189.8 163.557 189.958L164.367 190.584L162.477 190.74L160.309 189.026V188.631L160.847 188.264Z" fill="black"/>
<path d="M162.058 189.831L149.177 180.946C148.31 180.341 147.274 180.15 146.286 180.412C145.875 180.531 145.495 180.766 145.182 181.097C144.87 181.429 144.634 181.845 144.496 182.309C144.364 182.733 144.308 183.184 144.331 183.634C144.355 184.084 144.458 184.524 144.633 184.927C145.012 185.797 145.601 186.522 146.33 187.013C147.978 188.112 151.346 189.973 156.036 190.655C157.632 190.883 159.197 191.341 160.694 192.019C161.022 192.164 161.342 192.332 161.652 192.522C162.45 193.061 163.372 193.302 164.293 193.212C165.077 193.114 165.846 192.889 166.575 192.543C166.919 192.383 167.23 192.145 167.491 191.843C167.753 191.54 167.958 191.179 168.095 190.782C168.288 190.215 168.317 189.647 167.748 189.497C167.573 189.455 167.392 189.464 167.222 189.524C166.427 189.785 163.37 190.709 162.058 189.831Z" fill="#4D61FC"/>
<path opacity="0.2" d="M147.873 186.756C143.628 184.42 145.265 181.021 145.265 181.021L144.983 181.345C144.772 181.631 144.607 181.959 144.497 182.313C144.365 182.737 144.309 183.188 144.333 183.638C144.356 184.088 144.459 184.528 144.635 184.931C145.013 185.801 145.603 186.526 146.331 187.017C147.979 188.116 151.347 189.977 156.038 190.659C156.153 190.676 156.269 190.697 156.383 190.715L158.164 190.188C151.996 188.996 148.754 187.259 148.145 186.91L147.873 186.756Z" fill="black"/>
<path d="M159.071 187.774L162.058 189.831C163.369 190.705 166.427 189.781 167.22 189.518C167.391 189.458 167.572 189.449 167.747 189.491C168.316 189.641 168.289 190.208 168.094 190.776C167.957 191.173 167.752 191.534 167.491 191.836C167.23 192.139 166.918 192.377 166.575 192.536C165.845 192.884 165.077 193.112 164.293 193.212C163.374 193.307 162.452 193.074 161.653 192.543C161.343 192.352 161.023 192.185 160.695 192.04C159.199 191.358 157.634 190.896 156.037 190.665L155.537 190.586C156.896 190.832 159.071 187.774 159.071 187.774Z" fill="#21252B"/>
<path d="M166.3 153.823C168.225 151.627 169.645 147.617 169.625 144.518C169.625 143.984 169.719 143.427 169.558 142.926C169.334 142.24 168.638 141.883 168.004 141.923C167.37 141.962 166.786 142.321 166.241 142.699C165.125 143.468 164.071 144.35 163.09 145.333C162.356 146.069 161.749 146.958 161.301 147.953C161.176 148.196 161.114 148.475 161.12 148.756C161.152 149.005 161.239 149.24 161.373 149.439C162.47 151.285 164.799 152.465 166.3 153.823Z" fill="#4D61FC"/>
<path d="M161.084 151.954C160.885 150.548 161.402 149.094 162.237 148.047C163.071 147 164.195 146.31 165.35 145.805C165.861 145.579 166.502 145.415 166.905 145.842C167.07 146.042 167.185 146.288 167.241 146.556C167.429 147.261 167.498 148.001 167.444 148.736C167.348 149.8 167.028 150.821 166.513 151.71C166.302 152.124 166.015 152.479 165.673 152.753C165.023 153.233 164.199 153.219 163.427 153.189C162.967 153.2 162.508 153.124 162.069 152.964C161.638 152.768 161.158 152.478 161.084 151.954Z" fill="white"/>
<path d="M152.198 154.27C152.081 154.28 151.963 154.253 151.858 154.193C151.615 154.012 151.417 153.762 151.283 153.467C149.974 151.047 148.051 146.81 148.907 143.871C149 143.511 149.205 143.204 149.482 143.009C149.807 142.801 150.205 142.834 150.566 142.909C151.436 143.092 152.258 143.508 152.964 144.123C154.36 145.34 155.912 146.157 157.481 147.044C157.882 147.275 158.33 147.649 158.288 148.166C158.254 148.398 158.165 148.615 158.03 148.792C157.103 150.233 155.878 151.374 154.666 152.501C154.22 152.92 152.996 154.22 152.198 154.27Z" fill="#4D61FC"/>
<path d="M150.961 150.344C150.731 149.394 150.67 148.401 150.78 147.423C150.794 147.125 150.879 146.836 151.026 146.589C151.293 146.201 151.781 146.13 152.209 146.186C153.178 146.318 154.039 146.946 154.827 147.609C155.677 148.331 156.485 149.117 157.247 149.96C157.566 150.311 157.875 150.719 157.89 151.226C157.88 151.738 157.746 152.236 157.505 152.666C157.339 152.995 157.158 153.315 156.963 153.623C156.76 154.001 156.497 154.33 156.186 154.591C155.942 154.754 155.669 154.853 155.388 154.879C155.107 154.906 154.824 154.86 154.56 154.746C154.033 154.51 153.562 154.136 153.183 153.652C152.278 152.574 151.309 151.79 150.961 150.344Z" fill="white"/>
<path d="M168.92 154.587C169.199 154.502 169.493 154.502 169.773 154.587C169.041 153.602 167.765 152.607 167.765 152.607C167.692 152.501 167.61 152.403 167.521 152.313C166.198 150.961 164.798 149.712 163.331 148.575C162.247 147.741 161.067 146.935 159.77 146.937C158.227 146.937 156.879 148.062 155.641 149.136C155.119 149.578 154.616 150.05 154.135 150.55C153.136 151.651 152.318 152.951 151.721 154.389V154.291C151.721 154.291 150.817 155.567 150.078 156.552C150.358 156.467 150.653 156.467 150.933 156.552C150.643 156.643 150.386 156.841 150.201 157.115C150.201 157.115 150.824 157.115 151.527 158.388C151.544 158.423 151.562 158.457 151.582 158.49C151.586 158.502 151.593 158.513 151.6 158.523C151.628 158.573 151.657 158.623 151.69 158.671C152.532 159.948 153.638 160.891 154.834 161.707C156.621 162.927 158.505 164.181 160.581 164.266C160.95 164.303 161.321 164.241 161.665 164.085C161.917 163.943 162.151 163.762 162.359 163.547L165.655 160.351C166.558 159.477 167.473 158.586 168.139 157.464C168.346 157.129 168.513 156.764 168.633 156.377C169.198 154.917 169.652 155.161 169.652 155.161C169.468 154.882 169.211 154.681 168.92 154.587Z" fill="#4D61FC"/>
<path d="M151.755 158.776C151.69 158.676 153.166 158.313 153.318 158.313C154.033 158.315 154.747 158.392 155.45 158.542C156.021 158.649 156.565 158.895 157.047 159.264C157.598 159.71 157.504 160.24 157.875 160.822C158.465 160.185 159.219 159.787 160.022 159.687C160.826 159.589 161.635 159.794 162.329 160.274C162.509 160.401 162.746 160.539 162.889 160.37C162.947 160.279 162.98 160.171 162.983 160.059C163.051 159.594 163.229 159.159 163.498 158.803C163.767 158.448 164.116 158.185 164.506 158.044C165.785 157.603 166.604 155.832 167.939 155.749C168.024 155.736 168.11 155.742 168.192 155.768C168.274 155.793 168.352 155.837 168.419 155.897C168.665 156.158 168.53 156.625 168.367 156.961C167.111 159.571 165.202 161.707 163.066 163.392C162.556 163.827 161.991 164.169 161.391 164.404C160.016 164.875 158.54 164.348 157.217 163.705C155.05 162.65 153.165 160.949 151.755 158.776Z" fill="white"/>
<path d="M159.617 158.611C159.879 158.526 160.15 158.481 160.423 158.48C160.697 158.481 160.963 158.589 161.178 158.786C161.349 158.967 161.458 159.213 161.485 159.479C161.511 159.744 161.455 160.013 161.324 160.234C161.153 160.468 160.942 160.657 160.703 160.789C160.607 160.892 160.483 160.951 160.352 160.957C160.222 160.962 160.094 160.913 159.993 160.818L159.44 160.418C159.298 160.335 159.174 160.215 159.078 160.069C159.029 159.968 158.999 159.856 158.99 159.74C158.981 159.624 158.993 159.507 159.026 159.397C159.129 159.024 159.279 158.707 159.617 158.611Z" fill="#21252B"/>
<path d="M161.283 161.715C161.082 161.801 160.859 161.792 160.663 161.69C160.571 161.654 160.489 161.59 160.425 161.505C160.361 161.42 160.319 161.317 160.302 161.206C160.306 160.927 160.29 160.648 160.255 160.372C160.22 160.648 160.204 160.927 160.208 161.206C160.191 161.317 160.148 161.42 160.085 161.505C160.021 161.59 159.939 161.654 159.846 161.69C159.651 161.792 159.428 161.801 159.227 161.715C159.018 161.623 158.835 161.467 158.697 161.264C158.806 161.505 158.98 161.697 159.192 161.811C159.303 161.869 159.422 161.899 159.543 161.899C159.664 161.899 159.783 161.869 159.893 161.811C160.006 161.753 160.104 161.662 160.177 161.548C160.168 161.532 160.163 161.513 160.163 161.493C160.162 161.474 160.166 161.455 160.174 161.438C160.183 161.421 160.194 161.407 160.209 161.397C160.223 161.387 160.24 161.382 160.257 161.382C160.273 161.382 160.29 161.387 160.305 161.397C160.319 161.407 160.331 161.421 160.339 161.438C160.347 161.455 160.351 161.474 160.351 161.493C160.35 161.513 160.345 161.532 160.336 161.548C160.41 161.662 160.507 161.753 160.62 161.811C160.73 161.869 160.849 161.899 160.97 161.899C161.091 161.899 161.211 161.869 161.321 161.811C161.534 161.697 161.708 161.505 161.816 161.264C161.677 161.468 161.493 161.624 161.283 161.715Z" stroke="#21252B" stroke-width="0.59" stroke-miterlimit="10"/>
<path d="M161.458 156.429C161.557 156.051 161.989 155.334 163.879 155.686C163.896 155.689 163.911 155.699 163.922 155.714C163.932 155.729 163.938 155.747 163.938 155.767C163.938 155.786 163.932 155.805 163.922 155.819C163.911 155.834 163.896 155.844 163.879 155.847C163.234 155.964 162.009 156.22 161.561 156.521C161.549 156.529 161.535 156.532 161.521 156.531C161.507 156.53 161.494 156.524 161.483 156.514C161.472 156.505 161.464 156.491 161.459 156.476C161.455 156.461 161.454 156.445 161.458 156.429Z" fill="#21252B"/>
<path d="M158.347 156.552C158.247 156.175 157.816 155.457 155.926 155.809C155.909 155.813 155.894 155.822 155.883 155.837C155.872 155.852 155.866 155.871 155.866 155.89C155.866 155.909 155.872 155.928 155.883 155.943C155.894 155.957 155.909 155.967 155.926 155.97C156.571 156.087 157.796 156.343 158.244 156.644C158.256 156.652 158.27 156.656 158.284 156.655C158.297 156.653 158.311 156.647 158.322 156.638C158.333 156.628 158.341 156.614 158.346 156.599C158.35 156.584 158.35 156.568 158.347 156.552Z" fill="#21252B"/>
<path d="M158.296 147.275L159.776 146.285C159.794 146.272 159.815 146.267 159.836 146.27C159.857 146.273 159.876 146.284 159.891 146.301C159.906 146.319 159.915 146.341 159.918 146.365C159.92 146.39 159.915 146.414 159.904 146.435L159.673 146.881L161.151 146.454C161.168 146.448 161.186 146.449 161.204 146.456C161.221 146.463 161.236 146.475 161.247 146.491C161.258 146.508 161.265 146.527 161.267 146.548C161.269 146.568 161.265 146.59 161.257 146.608L161.055 147.467L158.296 147.275Z" fill="#4D61FC"/>
<path d="M159.548 166.926L156.896 171.682C156.896 171.682 157.813 171.432 158.258 173.293L159.31 170.581C159.534 170.008 159.703 169.409 159.812 168.793C160.137 166.926 159.548 166.926 159.548 166.926Z" fill="#21252B"/>
<path opacity="0.4" d="M157.012 153.473C157.413 153.458 158.173 153.527 158.457 154.197C158.465 154.216 158.469 154.236 158.467 154.257C158.465 154.278 158.458 154.297 158.447 154.314C158.436 154.33 158.421 154.342 158.403 154.349C158.386 154.355 158.368 154.356 158.35 154.351C157.862 154.207 157.395 153.977 156.966 153.669C156.95 153.657 156.937 153.639 156.93 153.618C156.923 153.597 156.922 153.574 156.927 153.552C156.932 153.53 156.943 153.511 156.958 153.496C156.973 153.482 156.992 153.474 157.012 153.473Z" fill="white"/>
<path opacity="0.4" d="M162.639 153.469C162.237 153.458 161.478 153.529 161.194 154.201C161.186 154.219 161.182 154.24 161.184 154.261C161.185 154.282 161.192 154.302 161.204 154.318C161.215 154.334 161.23 154.346 161.248 154.353C161.265 154.359 161.283 154.359 161.301 154.353C161.789 154.207 162.255 153.976 162.683 153.667C162.699 153.655 162.711 153.637 162.718 153.616C162.725 153.595 162.726 153.572 162.722 153.55C162.717 153.529 162.706 153.509 162.692 153.495C162.677 153.48 162.659 153.471 162.639 153.469Z" fill="white"/>
<path opacity="0.2" d="M156.805 177.058L159.31 170.575C159.534 170.002 159.703 169.402 159.812 168.787C159.837 168.637 159.855 168.503 159.87 168.37L159.776 167.677L156.885 175.504C155.982 178.842 154.355 176.547 154.355 176.547L154.861 177.411C154.988 177.587 155.152 177.722 155.338 177.803C155.524 177.883 155.724 177.907 155.92 177.872C156.116 177.836 156.301 177.743 156.456 177.6C156.611 177.457 156.732 177.271 156.805 177.058Z" fill="black"/>
<path opacity="0.2" d="M165.843 169.744L163.849 172.197L160.338 166.899L160.069 167.677L163.849 174.067L165.843 169.744Z" fill="black"/>
<path d="M165.894 169.686L163.848 173.288L160.303 166.926C160.303 166.926 159.72 166.926 160.04 168.787C160.149 169.403 160.317 170.002 160.542 170.575L163.046 177.058C163.13 177.304 163.277 177.515 163.466 177.664C163.655 177.813 163.879 177.892 164.109 177.892C164.277 177.893 164.443 177.85 164.596 177.767C164.748 177.685 164.883 177.564 164.99 177.415L167.135 173.927L165.894 169.686Z" fill="#4D61FC"/>
<path d="M160.303 166.926L162.956 171.682C162.956 171.682 162.038 171.432 161.593 173.293L160.542 170.581C160.317 170.008 160.149 169.409 160.04 168.793C159.72 166.926 160.303 166.926 160.303 166.926Z" fill="#21252B"/>
<path opacity="0.2" d="M163.046 177.058L160.542 170.574C160.317 170.002 160.149 169.402 160.04 168.787C160.015 168.636 159.996 168.503 159.982 168.369L160.069 167.671L162.96 175.497C163.863 178.835 165.543 176.54 165.551 176.54L164.983 177.404C164.856 177.58 164.692 177.715 164.507 177.796C164.321 177.877 164.12 177.901 163.924 177.865C163.728 177.83 163.544 177.736 163.389 177.594C163.233 177.451 163.113 177.264 163.039 177.052L163.046 177.058Z" fill="black"/>
<path d="M145.177 59.1084C143.986 59.8155 143.256 61.2278 142.871 62.2145L143.005 62.1415C143.086 62.0979 143.178 62.0929 143.262 62.1279C143.346 62.163 143.414 62.2349 143.452 62.3282C143.49 62.4214 143.494 62.5282 143.464 62.625C143.434 62.7218 143.371 62.8009 143.29 62.8445C142.996 63.003 142.736 63.1636 142.513 63.3118C142.374 63.4056 142.248 63.4953 142.138 63.5746C141.776 63.8437 141.585 64.0294 141.581 64.0314C141.513 64.0942 141.426 64.1239 141.339 64.1138C141.252 64.1038 141.172 64.0552 141.116 63.978C141.059 63.9011 141.031 63.8018 141.037 63.701C141.043 63.6005 141.083 63.5066 141.148 63.439C141.158 63.4286 141.267 63.3243 141.466 63.1616C140.696 62.8299 139.415 62.6713 138.62 62.6484C138.531 62.6457 138.446 62.6023 138.384 62.5276C138.323 62.4529 138.289 62.3532 138.291 62.25C138.292 62.1988 138.301 62.1482 138.319 62.1014C138.337 62.0545 138.363 62.0119 138.395 61.9767C138.427 61.9414 138.465 61.9137 138.506 61.8955C138.548 61.8772 138.592 61.8686 138.636 61.8703C138.893 61.8703 140.918 61.9537 142.011 62.59C142.318 61.6033 143.166 59.4317 144.866 58.4179C144.944 58.3789 145.033 58.3757 145.113 58.4087C145.194 58.4419 145.26 58.5088 145.3 58.5962C145.339 58.6839 145.348 58.7852 145.325 58.8802C145.302 58.9753 145.25 59.0568 145.177 59.1084Z" fill="#21252B"/>
<path d="M145.119 106.343C143.93 107.052 143.2 108.462 142.816 109.449L142.949 109.376C142.989 109.352 143.033 109.338 143.078 109.335C143.123 109.331 143.169 109.338 143.211 109.355C143.254 109.372 143.293 109.399 143.327 109.433C143.36 109.468 143.387 109.511 143.406 109.558C143.425 109.605 143.436 109.656 143.438 109.708C143.439 109.76 143.432 109.812 143.415 109.861C143.399 109.91 143.375 109.954 143.343 109.991C143.312 110.029 143.275 110.059 143.233 110.079C142.939 110.24 142.68 110.4 142.458 110.546C142.317 110.642 142.192 110.73 142.082 110.811C141.889 110.951 141.702 111.104 141.524 111.268C141.464 111.328 141.388 111.36 141.309 111.36C141.239 111.36 141.172 111.336 141.115 111.29C141.058 111.245 141.015 111.18 140.991 111.105C140.967 111.03 140.964 110.948 140.982 110.871C141 110.794 141.039 110.725 141.092 110.673C141.103 110.673 141.209 110.559 141.408 110.398C140.64 110.064 139.359 109.906 138.564 109.883C138.52 109.882 138.477 109.871 138.436 109.85C138.396 109.83 138.359 109.8 138.329 109.763C138.298 109.727 138.274 109.683 138.258 109.636C138.242 109.588 138.234 109.537 138.235 109.486C138.236 109.435 138.245 109.384 138.262 109.337C138.28 109.29 138.306 109.247 138.338 109.212C138.37 109.176 138.408 109.149 138.45 109.131C138.492 109.113 138.536 109.105 138.58 109.107C138.837 109.107 140.861 109.19 141.954 109.826C142.263 108.84 143.108 106.668 144.81 105.654C144.85 105.629 144.893 105.612 144.938 105.606C144.983 105.6 145.029 105.604 145.072 105.619C145.116 105.634 145.156 105.659 145.191 105.692C145.226 105.725 145.255 105.766 145.276 105.813C145.297 105.859 145.309 105.91 145.312 105.962C145.316 106.014 145.31 106.067 145.296 106.116C145.281 106.166 145.258 106.211 145.227 106.25C145.197 106.289 145.16 106.321 145.119 106.343Z" fill="#21252B"/>
<path d="M235.12 131.096C234.383 131.534 233.931 132.408 233.693 133.019L233.776 132.973C233.826 132.946 233.884 132.942 233.937 132.964C233.989 132.985 234.031 133.029 234.056 133.087C234.079 133.145 234.081 133.211 234.063 133.272C234.045 133.332 234.007 133.382 233.957 133.409C233.776 133.507 233.613 133.618 233.476 133.697C233.389 133.756 233.312 133.812 233.243 133.862C233.124 133.949 233.008 134.043 232.898 134.144C232.862 134.181 232.813 134.201 232.764 134.2C232.733 134.2 232.704 134.193 232.676 134.178C232.648 134.164 232.625 134.142 232.605 134.114C232.569 134.066 232.553 134.003 232.556 133.939C232.562 133.876 232.589 133.817 232.63 133.777C232.694 133.716 232.759 133.659 232.827 133.605C232.256 133.405 231.664 133.297 231.066 133.286C231.039 133.286 231.011 133.279 230.986 133.266C230.961 133.254 230.937 133.235 230.919 133.212C230.899 133.19 230.885 133.163 230.876 133.133C230.865 133.103 230.862 133.072 230.862 133.04C230.862 133.009 230.869 132.977 230.88 132.949C230.89 132.92 230.907 132.894 230.927 132.872C230.945 132.85 230.968 132.833 230.995 132.822C231.021 132.811 231.048 132.805 231.075 132.807C231.236 132.807 232.488 132.859 233.163 133.251C233.355 132.642 233.886 131.298 234.932 130.67C234.979 130.653 235.028 130.656 235.073 130.677C235.118 130.698 235.156 130.737 235.18 130.787C235.201 130.836 235.209 130.894 235.198 130.949C235.189 131.004 235.162 131.053 235.124 131.088L235.12 131.096Z" fill="#21252B"/>
<path d="M88.8442 85.3196C88.1088 85.7577 87.6569 86.6317 87.4184 87.243L87.5033 87.1971C87.5532 87.1695 87.6106 87.1658 87.6627 87.1868C87.7149 87.2081 87.7577 87.2521 87.7817 87.3097C87.8056 87.3673 87.8088 87.4334 87.7904 87.4937C87.7722 87.554 87.7339 87.6034 87.684 87.631C87.5033 87.7311 87.3407 87.8291 87.2034 87.9209C87.1167 87.9793 87.039 88.0336 86.9703 88.0836C86.8507 88.1706 86.7356 88.2653 86.6254 88.3673C86.5876 88.4034 86.5405 88.4232 86.4915 88.4237C86.4613 88.4241 86.4311 88.4164 86.4037 88.4018C86.3762 88.3869 86.3518 88.3652 86.3325 88.3381C86.3148 88.3141 86.3014 88.2864 86.2929 88.2564C86.2846 88.2263 86.2815 88.1946 86.2839 88.1631C86.2862 88.1316 86.294 88.1009 86.3067 88.073C86.3193 88.045 86.3368 88.0204 86.3578 88.0002C86.3578 88.0002 86.4301 87.9293 86.5529 87.8291C85.9821 87.6282 85.3899 87.5208 84.7931 87.51C84.7658 87.5095 84.7387 87.5027 84.7136 87.4899C84.6883 87.4772 84.6657 87.4589 84.6467 87.4361C84.6276 87.4132 84.6128 87.3863 84.6028 87.3566C84.5931 87.327 84.5884 87.2955 84.5889 87.2638C84.5895 87.2323 84.5954 87.201 84.6064 87.1722C84.6175 87.1432 84.6334 87.1172 84.6532 87.0955C84.6729 87.0736 84.6964 87.0567 84.7221 87.0454C84.7475 87.0343 84.7748 87.0291 84.8021 87.0302C84.9611 87.0302 86.215 87.0823 86.8908 87.4745C87.0823 86.8633 87.6137 85.5199 88.658 84.892C88.6823 84.8776 88.7088 84.8686 88.7361 84.8659C88.7634 84.8634 88.7909 84.8669 88.817 84.8765C88.8431 84.8861 88.8673 84.9016 88.8882 84.9218C88.909 84.9422 88.9264 84.9673 88.939 84.9952C88.9515 85.0234 88.9591 85.054 88.9614 85.0855C88.9638 85.117 88.9607 85.1488 88.9524 85.1788C88.9441 85.209 88.9307 85.237 88.913 85.261C88.8955 85.2852 88.8738 85.3052 88.8496 85.3196H88.8442Z" fill="#21252B"/>
<path d="M102.819 79.754C108.65 79.754 113.377 74.2968 113.377 67.5652C113.377 60.8335 108.65 55.3763 102.819 55.3763C96.9889 55.3763 92.2623 60.8335 92.2623 67.5652C92.2623 74.2968 96.9889 79.754 102.819 79.754Z" fill="white"/>
<path d="M80.7416 209.582C80.7416 209.582 80.3803 211.956 79.6792 213.754C79.1021 215.31 78.7664 216.973 78.6873 218.664C78.6873 219.482 77.1262 219.974 77.1262 219.974L76.6311 226.193H102.151C102.151 226.193 100.805 222.183 99.9535 222.183C99.1025 222.183 97.33 221.856 97.33 221.856L94.5656 214.899L90.9519 209.087L80.7416 209.582Z" fill="#61656D"/>
<path opacity="0.3" d="M83.4882 210.927L79.3795 226.195H93.6804L90.8094 217.765L85.4937 217.198L83.4882 210.927Z" fill="black"/>
<path opacity="0.2" d="M80.7416 209.582C80.7416 209.582 82.6569 209.999 83.2242 210.646C83.7915 211.292 84.7835 215.235 84.7835 215.235L85.4918 217.198L91.8716 217.771L94.3108 214.498L90.9502 209.096L80.7416 209.582Z" fill="white"/>
<path d="M206.562 217.901C206.444 218.652 206.256 219.384 206.003 220.089C205.702 220.907 205.524 221.779 205.483 222.665C205.483 223.083 204.666 223.352 204.666 223.352L204.404 226.612H217.787C217.787 226.612 217.081 224.509 216.635 224.509C216.174 224.482 215.715 224.424 215.26 224.338L213.814 220.69L211.919 217.642L206.562 217.901Z" fill="#61656D"/>
<path opacity="0.3" d="M208 218.606L205.846 226.612H213.346L211.841 222.192L209.053 221.896L208 218.606Z" fill="black"/>
<path opacity="0.2" d="M206.562 217.901C206.562 217.901 207.564 218.109 207.863 218.458C208.161 218.806 208.681 220.861 208.681 220.861L209.042 221.891L212.389 222.192L213.668 220.475L211.906 217.642L206.562 217.901Z" fill="white"/>
<path d="M92.9003 218.758C92.9003 218.758 97.9485 221.118 98.3695 226.602H99.3325C99.3325 226.602 98.8501 220.214 92.9003 218.758Z" fill="#868A91"/>
<g opacity="0.1">
<path opacity="0.1" d="M93.0323 218.858C93.0323 218.858 98.0824 221.218 98.5034 226.7H99.4664C99.4664 226.7 98.984 220.314 93.0323 218.858Z" fill="white"/>
</g>
<path d="M99.9953 226.602C99.9953 226.602 99.6339 221.741 95.0988 220.631C95.0988 220.631 98.9437 222.428 99.2545 226.602H99.9953Z" fill="#B2B6BB"/>
<path d="M105.477 218.723C105.477 218.723 100.418 221.082 100.006 226.566H99.0449C99.0449 226.566 99.5255 220.181 105.477 218.723Z" fill="#868A91"/>
<g opacity="0.1">
<path opacity="0.1" d="M105.354 218.802C105.354 218.802 100.304 221.161 99.8832 226.646H98.922C98.922 226.646 99.4026 220.26 105.354 218.802Z" fill="white"/>
</g>
<path d="M99.486 226.944C99.486 226.944 97.5834 222.59 100.931 218.894C100.931 218.894 98.4814 222.757 100.111 226.5L99.486 226.944Z" fill="#B2B6BB"/>
<path opacity="0.1" d="M99.9953 226.612C99.9953 226.612 99.6339 221.754 95.0988 220.644C95.0988 220.644 98.9437 222.44 99.2545 226.612H99.9953Z" fill="black"/>
<g opacity="0.2">
<path opacity="0.1" d="M99.486 226.963C99.486 226.963 97.5834 222.607 100.931 218.912C100.931 218.912 98.4814 222.774 100.111 226.518L99.486 226.963Z" fill="black"/>
</g>
<path d="M100.035 216.182C100.035 216.182 97.3557 221.66 99.9828 226.253L99.2312 226.944C99.2312 226.944 96.1632 221.601 100.035 216.182Z" fill="#868A91"/>
<g opacity="0.2">
<path opacity="0.2" d="M100.035 216.182C100.035 216.182 97.3557 221.66 99.9828 226.253L99.2312 226.944C99.2312 226.944 96.1632 221.601 100.035 216.182Z" fill="white"/>
</g>
<path d="M208.536 218.55C208.536 218.55 213.585 220.909 214.006 226.393H214.969C214.969 226.393 214.486 220.006 208.536 218.55Z" fill="#868A91"/>
<g opacity="0.1">
<path opacity="0.1" d="M208.668 218.65C208.668 218.65 213.727 221.009 214.139 226.491H215.102C215.102 226.491 214.62 220.106 208.668 218.65Z" fill="white"/>
</g>
<path d="M215.632 226.393C215.632 226.393 215.271 221.533 210.735 220.423C210.735 220.423 214.58 222.219 214.891 226.393H215.632Z" fill="#B2B6BB"/>
<path d="M221.114 218.514C221.114 218.514 216.055 220.873 215.643 226.358H214.681C214.681 226.358 215.162 219.972 221.114 218.514Z" fill="#868A91"/>
<g opacity="0.1">
<path opacity="0.1" d="M220.991 218.593C220.991 218.593 215.932 220.953 215.52 226.437H214.559C214.559 226.437 215.039 220.052 220.991 218.593Z" fill="white"/>
</g>
<path d="M215.122 226.735C215.122 226.735 213.22 222.382 216.568 218.685C216.568 218.685 214.118 222.549 215.747 226.291L215.122 226.735Z" fill="#B2B6BB"/>
<path opacity="0.1" d="M215.632 226.404C215.632 226.404 215.271 221.545 210.735 220.435C210.735 220.435 214.58 222.231 214.891 226.404H215.632Z" fill="black"/>
<g opacity="0.2">
<path opacity="0.1" d="M215.122 226.754C215.122 226.754 213.22 222.398 216.568 218.704C216.568 218.704 214.118 222.565 215.747 226.31L215.122 226.754Z" fill="black"/>
</g>
<path d="M215.672 215.973C215.672 215.973 212.992 221.451 215.619 226.045L214.868 226.735C214.868 226.735 211.8 221.393 215.672 215.973Z" fill="#868A91"/>
<g opacity="0.2">
<path opacity="0.2" d="M215.672 215.973C215.672 215.973 212.992 221.451 215.619 226.045L214.868 226.735C214.868 226.735 211.8 221.393 215.672 215.973Z" fill="white"/>
</g>
<path d="M69.0736 217.008C69.0736 217.008 75.2023 219.87 75.7119 226.525H76.8809C76.8809 226.525 76.3009 218.775 69.0736 217.008Z" fill="#868A91"/>
<g opacity="0.1">
<path opacity="0.1" d="M69.2346 217.127C69.2346 217.127 75.3633 219.991 75.8746 226.646H77.0418C77.0418 226.646 76.4564 218.896 69.2346 217.127Z" fill="white"/>
</g>
<path d="M77.6851 226.525C77.6851 226.525 77.2424 220.627 71.7443 219.282C71.7443 219.282 76.4077 221.462 76.8034 226.525H77.6851Z" fill="#B2B6BB"/>
<path d="M84.3377 216.964C84.3377 216.964 78.209 219.828 77.6995 226.483H76.5323C76.5323 226.483 77.1159 218.733 84.3377 216.964Z" fill="#868A91"/>
<g opacity="0.1">
<path opacity="0.1" d="M84.251 217.094C84.251 217.094 78.1223 219.958 77.611 226.612H76.4456C76.4456 226.612 77.0237 218.862 84.251 217.094Z" fill="white"/>
</g>
<path d="M77.067 226.942C77.067 226.942 74.756 221.658 78.8177 217.173C78.8177 217.173 75.8457 221.86 77.8224 226.401L77.067 226.942Z" fill="#B2B6BB"/>
<path opacity="0.1" d="M77.6851 226.545C77.6851 226.545 77.2424 220.648 71.7443 219.303C71.7443 219.303 76.4077 221.483 76.8034 226.545H77.6851Z" fill="black"/>
<g opacity="0.2">
<path opacity="0.1" d="M77.067 226.963C77.067 226.963 74.756 221.679 78.8177 217.194C78.8177 217.194 75.8457 221.881 77.8224 226.422L77.067 226.963Z" fill="black"/>
</g>
<path d="M77.7333 213.883C77.7333 213.883 74.481 220.529 77.6701 226.103L76.7558 226.938C76.7558 226.938 73.0338 220.458 77.7333 213.883Z" fill="#868A91"/>
<g opacity="0.2">
<path opacity="0.2" d="M77.7333 213.883C77.7333 213.883 74.481 220.529 77.6701 226.103L76.7558 226.938C76.7558 226.938 73.0338 220.458 77.7333 213.883Z" fill="white"/>
</g>
<path d="M229.338 213.253C229.338 213.253 235.467 216.115 235.977 222.77H237.146C237.146 222.77 236.566 215.02 229.338 213.253Z" fill="#868A91"/>
<g opacity="0.1">
<path opacity="0.1" d="M229.499 213.372C229.499 213.372 235.628 216.236 236.139 222.891H237.306C237.306 222.891 236.721 215.141 229.499 213.372Z" fill="white"/>
</g>
<path d="M237.95 222.77C237.95 222.77 237.507 216.872 232.009 215.527C232.009 215.527 236.672 217.707 237.068 222.77H237.95Z" fill="#B2B6BB"/>
<path d="M244.602 213.209C244.602 213.209 238.474 216.073 237.964 222.728H236.797C236.797 222.728 237.38 214.978 244.602 213.209Z" fill="#868A91"/>
<g opacity="0.1">
<path opacity="0.1" d="M244.516 213.339C244.516 213.339 238.387 216.203 237.876 222.857H236.71C236.71 222.857 237.288 215.108 244.516 213.339Z" fill="white"/>
</g>
<path d="M237.332 223.187C237.332 223.187 235.021 217.903 239.082 213.418C239.082 213.418 236.11 218.105 238.087 222.647L237.332 223.187Z" fill="#B2B6BB"/>
<path opacity="0.1" d="M237.95 222.79C237.95 222.79 237.507 216.893 232.009 215.548C232.009 215.548 236.672 217.728 237.068 222.79H237.95Z" fill="black"/>
<g opacity="0.2">
<path opacity="0.1" d="M237.332 223.208C237.332 223.208 235.021 217.924 239.082 213.439C239.082 213.439 236.11 218.126 238.087 222.667L237.332 223.208Z" fill="black"/>
</g>
<path d="M237.998 210.128C237.998 210.128 234.746 216.774 237.935 222.348L237.021 223.183C237.021 223.183 233.299 216.703 237.998 210.128Z" fill="#868A91"/>
<g opacity="0.2">
<path opacity="0.2" d="M237.998 210.128C237.998 210.128 234.746 216.774 237.935 222.348L237.021 223.183C237.021 223.183 233.299 216.703 237.998 210.128Z" fill="white"/>
</g>
<path d="M259.151 226.925H46.8497C46.7778 226.925 46.7089 226.892 46.658 226.833C46.6072 226.775 46.5787 226.696 46.5787 226.612C46.5787 226.529 46.6072 226.449 46.658 226.391C46.7089 226.333 46.7778 226.299 46.8497 226.299H259.151C259.223 226.299 259.292 226.333 259.342 226.391C259.393 226.449 259.422 226.529 259.422 226.612C259.422 226.696 259.393 226.775 259.342 226.833C259.292 226.892 259.223 226.925 259.151 226.925Z" fill="#B2B6BB"/>
<line y1="240.043" x2="318" y2="240.043" stroke="#5467FC" stroke-width="3"/>
<defs>
<clipPath id="clip0">
<rect width="29.7594" height="30.7418" fill="white" transform="translate(164.877 253.267)"/>
</clipPath>
</defs>
</svg>
