<svg width="259" height="317" viewBox="0 0 259 317" fill="none" xmlns="http://www.w3.org/2000/svg">
<ellipse cx="128.5" cy="174" rx="121.5" ry="143" fill="#CCC9C9"/>
<path d="M190.784 203.679C190.784 203.679 184.564 184.759 180.374 176.179C177.994 171.289 176.334 170.999 177.784 164.179C180.714 159.349 182.784 144.679 180.374 130.329C181.374 116.729 174.984 109.839 167.614 111.859C167.614 111.859 167.074 100.369 156.704 96.2492C146.334 92.1292 144.704 95.5092 134.704 93.0092C124.704 90.5092 114.924 92.6892 111.344 99.1592C107.764 105.629 93.2838 110.179 91.7838 120.679C91.7838 137.179 76.4038 143.929 79.7838 156.179C83.1638 168.429 76.2438 179.519 71.7838 185.309C67.3238 191.099 51.7738 272.599 60.2838 276.179C60.2838 276.179 63.2838 272.179 66.7838 273.179C66.7838 273.179 64.6138 279.079 71.2838 277.679C77.9538 276.279 111.464 272.949 115.784 277.679C120.104 282.409 189.284 276.179 186.284 267.679C188.284 266.179 193.284 272.679 193.284 272.679C193.284 272.679 200.284 271.679 194.284 255.679C190.784 242.679 182.784 199.059 182.784 199.059C187.004 201.429 190.784 203.679 190.784 203.679Z" fill="#263238"/>
<path d="M178.864 271.179C183.974 264.849 187.024 246.679 187.024 246.679C191.358 249.897 195.159 253.778 198.284 258.179C203.975 257.331 209.571 255.934 214.994 254.009C220.575 252.096 225.883 249.464 230.784 246.179C219.914 230.179 201.514 202.919 190.184 194.349C185.804 191.039 172.234 187.809 172.234 187.809C169.164 185.029 162.464 187.809 162.464 187.809C126.214 197.029 93.0638 185.089 93.0638 185.089C93.0638 185.089 88.3638 182.919 84.5138 185.089C80.7652 184.675 76.9824 184.675 73.2338 185.089C64.9338 186.229 55.8638 195.709 52.1238 200.019L20.2738 236.909C20.2738 236.909 19.2038 251.429 21.4538 253.349C39.4538 268.779 65.9938 233.719 65.9938 233.719C66.1638 233.789 66.5738 264.249 80.7838 280.179C80.7838 280.179 90.8538 284.779 130.014 281.179C168.874 277.609 178.864 271.179 178.864 271.179Z" fill="#485159"/>
<path opacity="0.2" d="M43.0338 226.009C37.0338 226.539 33.8838 225.099 32.6838 222.539C41.3638 212.539 51.4938 200.759 52.1238 200.029L53.1238 198.889C57.6238 208.959 61.3638 224.409 43.0338 226.009Z" fill="black"/>
<path opacity="0.2" d="M69.7038 257.779C67.667 249.89 66.4241 241.816 65.9938 233.679C65.9938 233.679 70.3538 227.969 71.5638 221.969C71.5638 222.009 77.2238 244.579 69.7038 257.779Z" fill="black"/>
<path opacity="0.2" d="M194.974 254.009C192.61 251.273 189.943 248.814 187.024 246.679C187.024 246.679 187.454 232.349 191.454 228.009C194.674 224.519 198.104 242.679 194.974 254.009Z" fill="black"/>
<path d="M178.864 271.179C183.974 264.849 187.024 246.679 187.024 246.679C191.358 249.897 195.159 253.778 198.284 258.179" stroke="#263238" stroke-linecap="round" stroke-linejoin="round"/>
<path d="M230.784 246.179C219.914 230.179 201.514 202.919 190.184 194.349C185.804 191.039 172.234 187.809 172.234 187.809C169.164 185.029 162.464 187.809 162.464 187.809C126.214 197.029 93.0638 185.089 93.0638 185.089C93.0638 185.089 88.3638 182.919 84.5138 185.089C80.7652 184.675 76.9824 184.675 73.2338 185.089C64.9338 186.229 55.8638 195.709 52.1238 200.019L20.2738 236.909C20.2738 236.909 19.2038 251.429 21.4538 253.349C39.4538 268.779 65.9938 233.719 65.9938 233.719C66.1638 233.789 66.5738 264.249 80.7838 280.179" stroke="#263238" stroke-linecap="round" stroke-linejoin="round"/>
<path d="M163.784 179.009L163.304 179.209C163.473 179.168 163.635 179.1 163.784 179.009Z" fill="#263238"/>
<path d="M174.574 152.029C178.374 152.589 179.304 149.799 179.304 149.799C179.304 149.799 180.724 146.099 181.284 138.179C182.284 124.579 172.984 82.8391 165.614 84.8591C165.614 84.8591 165.074 73.3692 154.704 69.2492C144.334 65.1292 142.704 68.5092 132.704 66.0092C122.704 63.5092 112.924 65.6892 109.344 72.1592C105.764 78.6292 80.7838 102.679 90.2838 130.179C85.8238 135.969 80.2737 162.099 88.7837 165.679C88.7837 165.679 85.1737 163.749 87.7237 160.519C87.7237 160.519 89.7237 168.199 96.3937 166.799C103.064 165.399 111.534 164.929 115.854 169.659C120.174 174.389 135.964 175.659 139.524 172.059C143.084 168.459 145.844 171.799 152.294 175.059C158.744 178.319 165.904 175.459 165.904 175.459C165.904 175.459 165.304 178.249 163.764 179.079C165.074 178.529 168.704 176.799 169.764 174.199C170.824 171.599 171.424 169.089 170.154 163.019C174.624 161.269 172.564 158.309 172.564 158.309C176.784 160.679 178.784 153.679 178.784 153.679C174.854 153.619 174.574 152.029 174.574 152.029Z" fill="#263238"/>
<path d="M166.094 189.059C166.094 189.059 137.864 201.619 128.794 202.129C119.724 202.639 88.8738 186.229 88.8738 186.229L112.394 179.809C115.594 173.709 115.674 166.529 114.904 158.119C114.664 155.509 114.354 153.049 114.014 150.839C113.214 145.509 112.324 141.789 112.324 141.789L145.564 143.169C144.871 145.281 144.3 147.432 143.854 149.609C142.935 154.125 142.409 158.712 142.284 163.319C141.904 174.819 143.684 181.319 143.684 181.319L166.094 189.059Z" fill="white" stroke="#263238" stroke-linecap="round" stroke-linejoin="round"/>
<path d="M97.3738 190.549C97.3738 190.549 115.174 193.669 119.594 193.159C124.014 192.649 127.484 196.999 127.484 196.999" fill="white"/>
<path d="M97.3738 190.549C97.3738 190.549 115.174 193.669 119.594 193.159C124.014 192.649 127.484 196.999 127.484 196.999" stroke="#263238" stroke-linecap="round" stroke-linejoin="round"/>
<path d="M159.924 191.679C159.924 191.679 141.784 193.679 137.394 193.779C133.004 193.879 131.704 196.999 131.704 196.999" fill="white"/>
<path d="M159.924 191.679C159.924 191.679 141.784 193.679 137.394 193.779C133.004 193.879 131.704 196.999 131.704 196.999" stroke="#263238" stroke-linecap="round" stroke-linejoin="round"/>
<path d="M143.854 149.609C142.935 154.125 142.409 158.712 142.284 163.319C139.555 165.723 136.396 167.589 132.974 168.819C127.384 170.669 119.974 163.819 114.904 158.119C114.664 155.509 114.354 153.049 114.014 150.839L143.854 149.609Z" fill="#263238"/>
<path d="M104.604 113.809C104.604 113.809 101.864 109.599 99.4237 110.449C96.9837 111.299 96.9837 122.679 97.1737 125.679C97.3637 128.679 103.334 135.269 105.834 133.459" fill="white"/>
<path d="M104.604 113.809C104.604 113.809 101.864 109.599 99.4237 110.449C96.9837 111.299 96.9837 122.679 97.1737 125.679C97.3637 128.679 103.334 135.269 105.834 133.459" stroke="#263238" stroke-linecap="round" stroke-linejoin="round"/>
<path d="M164.784 122.679C164.784 122.679 168.614 119.439 170.714 120.959C172.814 122.479 169.514 133.399 168.474 136.189C167.434 138.979 159.804 143.599 157.934 141.139" fill="white"/>
<path d="M164.784 122.679C164.784 122.679 168.614 119.439 170.714 120.959C172.814 122.479 169.514 133.399 168.474 136.189C167.434 138.979 159.804 143.599 157.934 141.139" stroke="#263238" stroke-linecap="round" stroke-linejoin="round"/>
<path d="M127.604 166.349C117.534 164.859 107.534 147.779 106.324 142.969C104.984 137.619 102.034 111.229 107.784 96.7691C114.254 80.5191 127.784 73.6592 140.974 75.5992C154.164 77.5392 165.144 88.0091 166.654 105.439C167.994 120.939 157.554 145.359 154.724 150.099C152.184 154.359 138.234 167.909 127.604 166.349Z" fill="white" stroke="#263238" stroke-linecap="round" stroke-linejoin="round"/>
<path d="M150.434 124.009C150.164 125.879 149.104 127.269 148.074 127.109C147.044 126.949 146.444 125.329 146.714 123.459C146.984 121.589 148.044 120.209 149.074 120.359C150.104 120.509 150.714 122.139 150.434 124.009Z" fill="#263238"/>
<path d="M117.554 119.169C117.284 121.029 117.894 122.669 118.924 122.819C119.954 122.969 121.004 121.579 121.274 119.709C121.544 117.839 120.944 116.209 119.914 116.059C118.884 115.909 117.834 117.299 117.554 119.169Z" fill="#263238"/>
<path d="M140.074 144.419C140.074 144.419 134.854 154.659 128.194 152.979C121.534 151.299 121.584 141.979 121.584 141.709L122.524 142.069C125.155 143.055 127.884 143.759 130.664 144.169C133.355 144.523 136.073 144.63 138.784 144.489C139.594 144.459 140.074 144.419 140.074 144.419Z" fill="#757575"/>
<path d="M131.384 123.109C131.644 129.539 126.124 130.629 127.184 132.859C127.936 134.262 129.206 135.317 130.724 135.799" fill="white"/>
<path d="M131.384 123.109C131.644 129.539 126.124 130.629 127.184 132.859C127.936 134.262 129.206 135.317 130.724 135.799" stroke="#263238" stroke-linecap="round" stroke-linejoin="round"/>
<path d="M121.584 141.679C121.584 141.679 121.524 151.289 128.194 152.969C134.864 154.649 140.074 144.399 140.074 144.399" stroke="#263238" stroke-linecap="round" stroke-linejoin="round"/>
<path d="M111.604 110.679C111.604 110.679 117.604 103.099 126.914 105.499" stroke="#263238" stroke-linecap="round" stroke-linejoin="round"/>
<path d="M157.694 117.479C157.694 117.479 154.124 108.479 144.534 108.109" stroke="#263238" stroke-linecap="round" stroke-linejoin="round"/>
<path d="M185.824 111.429L183.964 113.489L182.524 115.079L165.854 124.759L166.534 120.089L180.184 112.159L183.134 111.779L185.824 111.429Z" fill="#5082AE" stroke="#263238" stroke-linecap="round" stroke-linejoin="round"/>
<path d="M181.784 115.489C179.314 115.019 180.144 112.149 180.144 112.149L185.784 111.429L181.784 115.489Z" fill="white" stroke="#263238" stroke-linecap="round" stroke-linejoin="round"/>
<path d="M185.784 111.429L183.924 113.479C183.749 113.435 183.587 113.353 183.447 113.239C183.307 113.126 183.194 112.983 183.115 112.821C183.036 112.66 182.993 112.483 182.99 112.303C182.986 112.123 183.021 111.944 183.094 111.779L185.784 111.429Z" fill="#263238"/>
<path d="M150.854 89.5091C150.854 89.5091 144.524 97.8092 130.784 100.209C113.574 103.209 104.074 118.089 104.314 124.299C100.931 115.589 99.9128 106.14 101.364 96.9092C104.784 74.0692 126.094 67.5392 141.584 69.1292C157.074 70.7192 164.584 86.2492 164.584 86.2492C164.584 86.2492 176.214 95.3091 174.584 106.729C172.964 117.659 170.314 117.969 168.904 120.439C166.964 123.859 169.514 125.289 162.714 130.919C162.714 130.919 162.624 118.109 159.284 106.729C155.944 95.3491 150.854 89.5091 150.854 89.5091Z" fill="#263238"/>
<path d="M151.115 87.7416C151.115 87.7416 169.092 101.713 158.949 136.466C158.949 136.466 161.267 108.63 146.81 90.7852L151.115 87.7416Z" fill="#263238"/>
<path d="M139.444 144.499L138.094 146.029C132.772 146.708 127.368 145.844 122.524 143.539L122.054 141.879C124.838 142.934 127.723 143.702 130.664 144.169C133.576 144.521 136.513 144.632 139.444 144.499V144.499Z" fill="white"/>
<path d="M120.094 141.079C120.094 141.079 130.934 146.129 141.414 144.219" stroke="#263238" stroke-linecap="round" stroke-linejoin="round"/>
<path d="M21.4538 253.349C12.1738 248.199 13.9738 229.679 20.1138 206.549C23.1138 195.189 33.5338 166.549 33.3238 165.549C32.7623 163.624 31.991 161.766 31.0238 160.009C31.0238 160.009 34.0238 156.949 35.2838 156.399C40.6938 154.089 51.3738 151.179 56.2838 153.209C57.8138 153.839 60.0338 157.409 59.7238 158.869C59.4138 160.329 55.0338 165.129 55.4538 169.729C55.8738 174.329 51.8838 189.509 51.9938 195.559C51.9938 196.799 52.0638 198.359 52.1338 200.059C52.1338 201.139 52.1338 220.059 44.8538 229.719" fill="#485159"/>
<path d="M21.4538 253.349C12.1738 248.199 13.9738 229.679 20.1138 206.549C23.1138 195.189 33.5338 166.549 33.3238 165.549C32.7623 163.624 31.991 161.766 31.0238 160.009C31.0238 160.009 34.0238 156.949 35.2838 156.399C40.6938 154.089 51.3738 151.179 56.2838 153.209C57.8138 153.839 60.0338 157.409 59.7238 158.869C59.4138 160.329 55.0338 165.129 55.4538 169.729C55.8738 174.329 51.8838 189.509 51.9938 195.559C51.9938 196.799 52.0638 198.359 52.1338 200.059C52.1338 201.139 52.1338 220.059 44.8538 229.719" stroke="#263238" stroke-linecap="round" stroke-linejoin="round"/>
<path d="M51.6238 109.679C51.8238 111.519 55.7938 124.679 57.0238 138.049C59.5332 137.138 61.8925 135.857 64.0238 134.249C66.5138 132.069 71.7238 133.809 71.5138 135.249C71.3038 136.689 66.5138 136.449 62.4638 141.889C58.4138 147.329 57.5838 153.359 52.2038 156.259C46.8238 159.159 38.4638 160.189 35.2038 156.319C31.9438 152.449 28.3238 131.919 29.5938 129.779C30.6771 128.217 32.0319 126.863 33.5938 125.779C33.5938 125.779 34.9638 121.779 37.0438 121.469C39.1238 121.159 44.0438 121.059 44.0438 121.059C45.1933 120.207 46.6199 119.814 48.0438 119.959C48.0438 119.959 46.4238 104.559 45.0438 99.3892C43.6638 94.2192 49.9938 94.2492 51.6238 109.679Z" fill="white" stroke="#263238" stroke-linecap="round" stroke-linejoin="round"/>
<path d="M48.1138 119.959C52.3638 121.879 54.2438 129.959 54.2438 130.539C53.3943 133.411 52.3724 136.23 51.1837 138.979C50.1237 141.279 47.8338 138.979 47.8338 138.979C47.8338 138.979 47.1338 141.979 45.5238 140.669C43.4738 138.979 43.4738 133.509 43.4738 133.509C43.4738 133.509 43.2238 138.059 42.0338 140.279C40.8438 142.499 38.4437 141.019 38.7937 134.449C38.7937 134.449 33.8938 133.249 33.7238 132.049" stroke="#263238" stroke-linecap="round" stroke-linejoin="round"/>
<path d="M43.4738 133.509C42.2738 130.429 37.6638 127.599 37.6638 127.599" stroke="#263238" stroke-linecap="round" stroke-linejoin="round"/>
<path d="M47.8338 138.979C47.8338 138.979 50.2437 131.979 49.5938 130.539C48.9438 129.099 44.8438 125.129 44.8438 125.129" stroke="#263238" stroke-linecap="round" stroke-linejoin="round"/>
<path d="M57.0238 138.079C57.0238 138.079 52.5038 139.079 50.4938 144.839" stroke="#263238" stroke-linecap="round" stroke-linejoin="round"/>
<path d="M33.3237 165.509C33.3237 165.509 40.6237 171.509 48.4737 166.509" stroke="#263238" stroke-linecap="round" stroke-linejoin="round"/>
<path d="M39.4638 183.319C38.0586 184.141 36.5527 184.776 34.9838 185.209" stroke="#263238" stroke-linecap="round" stroke-linejoin="round"/>
<path d="M57.0238 163.619C53.4973 170.208 48.7456 176.062 43.0238 180.869" stroke="#263238" stroke-linecap="round" stroke-linejoin="round"/>
<path d="M84.5138 185.089C84.5138 185.089 98.7638 198.469 107.104 202.089" stroke="#263238" stroke-linecap="round" stroke-linejoin="round"/>
<path d="M70.3038 199.569C70.9469 201.348 71.3701 203.198 71.5638 205.079" stroke="#263238" stroke-linecap="round" stroke-linejoin="round"/>
<path d="M65.3538 188.229C66.6338 190.639 67.7938 193.129 68.8438 195.659" stroke="#263238" stroke-linecap="round" stroke-linejoin="round"/>
<path d="M123.514 206.549C123.514 206.549 146.834 206.869 161.804 196.649" stroke="#263238" stroke-linecap="round" stroke-linejoin="round"/>
<path d="M172.234 187.809C170.23 189.171 168.397 190.77 166.774 192.569" stroke="#263238" stroke-linecap="round" stroke-linejoin="round"/>
<path d="M183.944 204.899C181.548 207.384 178.818 209.525 175.834 211.259" stroke="#263238" stroke-linecap="round" stroke-linejoin="round"/>
<path d="M189.024 198.679C188.264 199.823 187.443 200.925 186.564 201.979" stroke="#263238" stroke-linecap="round" stroke-linejoin="round"/>
<path d="M65.9938 233.679C65.9938 233.679 71.6838 226.309 71.5638 217.469" stroke="#263238" stroke-linecap="round" stroke-linejoin="round"/>
<path d="M187.024 246.679C187.024 246.679 185.804 231.849 196.204 221.009" stroke="#263238" stroke-linecap="round" stroke-linejoin="round"/>
<path d="M198.284 229.179C198.784 229.679 189.404 237.859 187.174 241.519" stroke="#263238" stroke-linecap="round" stroke-linejoin="round"/>
<path d="M95.7838 265.849C95.7838 265.849 129.914 279.409 147.594 279.129" stroke="#263238" stroke-linecap="round" stroke-linejoin="round"/>
<path d="M132.854 233.099H128.804C128.147 233.099 127.614 233.632 127.614 234.289V240.469C127.614 241.126 128.147 241.659 128.804 241.659H132.854C133.511 241.659 134.044 241.126 134.044 240.469V234.289C134.044 233.632 133.511 233.099 132.854 233.099Z" fill="#BFBFBF"/>
<path d="M132.854 242.299H128.854C128.37 242.297 127.907 242.103 127.566 241.76C127.225 241.417 127.034 240.953 127.034 240.469V234.289C127.034 233.806 127.225 233.342 127.566 232.999C127.907 232.656 128.37 232.462 128.854 232.459H132.854C133.094 232.459 133.331 232.507 133.553 232.599C133.774 232.691 133.975 232.826 134.144 232.996C134.313 233.166 134.447 233.368 134.538 233.59C134.629 233.812 134.675 234.049 134.674 234.289V240.469C134.675 240.709 134.629 240.947 134.538 241.169C134.447 241.391 134.313 241.593 134.144 241.763C133.975 241.933 133.774 242.068 133.553 242.16C133.331 242.252 133.094 242.299 132.854 242.299V242.299ZM128.854 233.729C128.707 233.732 128.567 233.792 128.464 233.897C128.361 234.001 128.304 234.142 128.304 234.289V240.469C128.304 240.615 128.362 240.755 128.465 240.858C128.568 240.961 128.708 241.019 128.854 241.019H132.854C132.926 241.021 132.999 241.007 133.066 240.98C133.133 240.953 133.194 240.912 133.246 240.861C133.297 240.81 133.338 240.749 133.365 240.681C133.392 240.614 133.405 240.542 133.404 240.469V234.289C133.405 234.216 133.392 234.144 133.365 234.076C133.338 234.008 133.298 233.946 133.246 233.894C133.195 233.842 133.134 233.8 133.067 233.772C132.999 233.744 132.927 233.729 132.854 233.729H128.854Z" fill="#263238"/>
<path d="M143.684 181.359C143.684 181.359 161.804 185.089 130.834 232.149C130.834 232.149 94.7537 186.449 112.394 179.809" stroke="#263238" stroke-linecap="round" stroke-linejoin="round"/>
<path d="M131.474 231.679C131.474 232.369 131.164 232.929 130.784 232.929C130.404 232.929 130.094 232.369 130.094 231.679C130.094 230.989 130.404 230.429 130.784 230.429C131.164 230.429 131.474 230.989 131.474 231.679Z" fill="#263238"/>
<path d="M193 162.348L197.134 159.322C197.928 154.956 200.172 151.077 203.424 148.446C206.677 145.815 210.702 144.623 214.71 145.105C218.718 145.586 222.417 147.706 225.082 151.048C227.746 154.389 229.182 158.711 229.107 163.163C229.033 167.615 227.454 171.875 224.679 175.106C221.905 178.337 218.137 180.305 214.116 180.622C210.095 180.94 206.112 179.585 202.95 176.823C199.788 174.061 197.675 170.093 197.028 165.698V165.698L193 162.348Z" fill="white"/>
<path d="M219.248 161.559C219.136 160.631 218.771 159.764 218.2 159.072C217.663 158.369 216.939 157.871 216.131 157.649C215.702 157.546 215.259 157.54 214.828 157.631C214.397 157.722 213.986 157.909 213.622 158.179C213.19 158.505 212.836 158.943 212.592 159.454C212.254 158.802 211.737 158.286 211.116 157.979C210.496 157.672 209.802 157.591 209.137 157.748C208.328 157.963 207.6 158.451 207.055 159.145C206.48 159.823 206.106 160.679 205.984 161.598C205.846 162.785 206.059 163.989 206.593 165.031C207.211 166.086 208.048 166.962 209.035 167.587C210.634 168.661 212.739 170.01 212.739 170.01C212.739 170.01 214.515 168.538 216.14 167.488C217.133 166.876 217.978 166.01 218.605 164.962C219.145 163.934 219.37 162.74 219.248 161.559V161.559Z" fill="#FF725E"/>
<rect width="259" height="61" rx="30.5" fill="#F7F7F7"/>
<path d="M62.2916 21.6722L64.4791 39.7394L58.6319 33.9442C57.765 33.0849 57.5324 31.779 58.0515 30.6776L62.2916 21.6722Z" fill="#1565C0"/>
<path d="M74.9201 17.5667C74.3039 16.956 73.469 16.6135 72.5984 16.6135C72.0552 16.6135 71.52 16.7472 71.0416 17.0023L62.2916 21.6723V36.3739C62.2916 37.1407 62.5986 37.8756 63.1462 38.4177L64.4791 39.7394H80.5208V36.126L85.625 28.1765L74.9201 17.5667Z" fill="#42A5F5"/>
<path d="M62.2916 21.6722H77.8542C78.6279 21.6722 79.3694 21.9765 79.9163 22.5192L85.625 28.1764V39.7394H80.5208L62.2916 21.6722Z" fill="#1565C0"/>
<path d="M80.5208 39.7394H64.4791L68.8541 44.0756H80.5208V39.7394Z" fill="#85CBF8"/>
<path d="M35.9583 15.0012L21.375 30.0074L25.75 34.5092L44.7083 15.0012H35.9583Z" fill="#40C4FF"/>
<path d="M44.7083 28.5068L36.6875 36.7602L32.3125 32.2584L35.9583 28.5068H44.7083Z" fill="#40C4FF"/>
<path d="M32.3119 32.2584L27.9371 36.7602L32.3121 41.2618L36.6868 36.76L32.3119 32.2584Z" fill="#03A9F4"/>
<path d="M44.7083 45.0135H35.9583L32.3125 41.2619L36.6875 36.7601L44.7083 45.0135Z" fill="#01579B"/>
<path d="M32.3125 41.2619L38.875 39.011L36.6875 36.7601L32.3125 41.2619Z" fill="#084994"/>
<path d="M109.491 25.3958L105.66 18.8333H94.1686L109.491 45.0833L124.813 18.8333H113.321L109.491 25.3958Z" fill="#81C784"/>
<path d="M113.321 18.8333L109.491 25.3958L105.66 18.8333H100.127L109.491 34.875L118.854 18.8333H113.321Z" fill="#455A64"/>
<path d="M136.375 43.625V17.375H162.625V43.625H136.375Z" fill="#FFD600"/>
<path d="M153.538 37.0239C154.043 37.8435 154.591 38.6288 155.753 38.6288C156.728 38.6288 157.24 38.1439 157.24 37.473C157.24 36.6702 156.711 36.3851 155.637 35.9177L155.049 35.6669C153.351 34.9465 152.221 34.0438 152.221 32.137C152.221 30.3797 153.567 29.0424 155.669 29.0424C157.166 29.0424 158.241 29.5609 159.017 30.9186L157.184 32.0903C156.781 31.3699 156.345 31.0863 155.669 31.0863C154.979 31.0863 154.542 31.5216 154.542 32.0903C154.542 32.7932 154.98 33.0776 155.99 33.5129L156.578 33.7638C158.58 34.6162 159.708 35.4868 159.708 37.4439C159.708 39.5526 158.043 40.7084 155.807 40.7084C153.621 40.7084 152.379 39.611 151.687 38.2525L153.538 37.0239ZM145.09 37.0837C145.459 37.7443 146.02 38.2525 146.826 38.2525C147.598 38.2525 148.042 37.9477 148.042 36.7628V29.0417H150.472V37.1362C150.472 39.5913 149.048 40.7084 146.968 40.7084C145.089 40.7084 143.733 39.4352 143.18 38.2525L145.09 37.0837Z" fill="#000001"/>
<path d="M203.625 39.9792C203.625 41.9931 201.993 43.625 199.979 43.625H181.021C179.008 43.625 177.375 41.9931 177.375 39.9792V21.0208C177.375 19.0069 179.008 17.375 181.021 17.375H199.979C201.993 17.375 203.625 19.0069 203.625 21.0208V39.9792Z" fill="#673AB7"/>
<path d="M197.084 31.6667C196.61 31.0104 195.925 30.5583 195.043 30.3177C195.043 30.3177 195.786 30.0479 196.457 29.0417C196.858 28.4 197.062 27.6271 197.062 26.7229C197.062 25.1552 196.494 23.9521 195.356 23.1281C194.219 22.3042 192.935 21.75 190.755 21.75H183.938V39.25H191.543C193.606 39.2354 195.159 38.7906 196.217 37.9375C197.267 37.0698 197.792 35.7865 197.792 34.0729C197.792 33.125 197.558 32.3229 197.084 31.6667ZM188.312 24.6667C188.312 24.6667 191.353 24.6667 191.411 24.6667C192.52 24.6667 193.417 25.5635 193.417 26.6719C193.417 27.7802 192.52 28.6771 191.411 28.6771C191.353 28.6771 188.312 28.6771 188.312 28.6771V24.6667ZM191.958 36.3333H188.312V31.9583H191.958C193.169 31.9583 194.146 32.9354 194.146 34.1458C194.146 35.3562 193.169 36.3333 191.958 36.3333Z" fill="white"/>
<path d="M219.5 27C220.5 22.3333 223 20 227 20C233 20 233.75 25.25 236.75 26.125C238.75 26.7083 240.5 25.8333 242 23.5C241 28.1667 238.5 30.5 234.5 30.5C228.5 30.5 227.75 25.25 224.75 24.375C222.75 23.7917 221 24.6667 219.5 27ZM212 37.5C213 32.8333 215.5 30.5 219.5 30.5C225.5 30.5 226.25 35.75 229.25 36.625C231.25 37.2083 233 36.3333 234.5 34C233.5 38.6667 231 41 227 41C221 41 220.25 35.75 217.25 34.875C215.25 34.2917 213.5 35.1667 212 37.5Z" fill="#44A8B3"/>
</svg>
